<svg width="397" height="94" viewBox="0 0 397 94" fill="none" xmlns="http://www.w3.org/2000/svg">
<g filter="url(#filter0_d_116_393)">
<rect x="32" y="20" width="333" height="30" rx="12" fill="url(#paint0_radial_116_393)" fill-opacity="0.7" shape-rendering="crispEdges"/>
<path d="M62.0336 39H60.5936V33.672H54.7376V39H53.2976V27.576H54.7376V32.408H60.5936V27.576H62.0336V39ZM73.397 30.264C74.133 30.264 74.7623 30.424 75.285 30.744C75.8183 31.064 76.2237 31.5173 76.501 32.104C76.789 32.68 76.933 33.3573 76.933 34.136V34.984H71.061C71.0823 35.9547 71.3277 36.696 71.797 37.208C72.277 37.7093 72.9437 37.96 73.797 37.96C74.341 37.96 74.821 37.912 75.237 37.816C75.6637 37.7093 76.101 37.56 76.549 37.368V38.6C76.1117 38.792 75.6797 38.9307 75.253 39.016C74.8263 39.112 74.3197 39.16 73.733 39.16C72.9223 39.16 72.2023 38.9947 71.573 38.664C70.9543 38.3333 70.469 37.8427 70.117 37.192C69.7757 36.5307 69.605 35.7253 69.605 34.776C69.605 33.8373 69.7597 33.032 70.069 32.36C70.389 31.688 70.8317 31.1707 71.397 30.808C71.973 30.4453 72.6397 30.264 73.397 30.264ZM73.381 31.416C72.709 31.416 72.1757 31.6347 71.781 32.072C71.397 32.4987 71.1677 33.096 71.093 33.864H75.461C75.461 33.3733 75.3863 32.9467 75.237 32.584C75.0877 32.2213 74.8583 31.9387 74.549 31.736C74.2503 31.5227 73.861 31.416 73.381 31.416ZM91.6922 34.696C91.6922 35.4107 91.5962 36.0453 91.4042 36.6C91.2229 37.144 90.9562 37.608 90.6042 37.992C90.2629 38.376 89.8416 38.6693 89.3402 38.872C88.8496 39.064 88.3002 39.16 87.6922 39.16C87.1269 39.16 86.6042 39.064 86.1242 38.872C85.6442 38.6693 85.2282 38.376 84.8762 37.992C84.5242 37.608 84.2469 37.144 84.0442 36.6C83.8522 36.0453 83.7562 35.4107 83.7562 34.696C83.7562 33.7467 83.9162 32.9467 84.2362 32.296C84.5562 31.6347 85.0149 31.1333 85.6122 30.792C86.2096 30.44 86.9189 30.264 87.7402 30.264C88.5189 30.264 89.2016 30.44 89.7882 30.792C90.3856 31.1333 90.8496 31.6347 91.1802 32.296C91.5216 32.9467 91.6922 33.7467 91.6922 34.696ZM85.2122 34.696C85.2122 35.368 85.2976 35.9547 85.4682 36.456C85.6496 36.9467 85.9269 37.3253 86.3002 37.592C86.6736 37.8587 87.1482 37.992 87.7242 37.992C88.3002 37.992 88.7749 37.8587 89.1482 37.592C89.5216 37.3253 89.7936 36.9467 89.9642 36.456C90.1456 35.9547 90.2362 35.368 90.2362 34.696C90.2362 34.0133 90.1456 33.432 89.9642 32.952C89.7829 32.472 89.5056 32.104 89.1322 31.848C88.7696 31.5813 88.2949 31.448 87.7082 31.448C86.8336 31.448 86.1989 31.736 85.8042 32.312C85.4096 32.888 85.2122 33.6827 85.2122 34.696ZM98.5957 33.848C98.5957 32.6 98.7184 31.5387 98.9637 30.664C99.2197 29.7787 99.6091 29.0747 100.132 28.552C100.665 28.0187 101.348 27.6613 102.18 27.48C102.873 27.3307 103.55 27.1973 104.212 27.08C104.873 26.9627 105.492 26.856 106.068 26.76L106.308 27.992C106.03 28.0347 105.721 28.088 105.38 28.152C105.038 28.2053 104.692 28.264 104.34 28.328C103.988 28.3813 103.646 28.44 103.316 28.504C102.996 28.5573 102.713 28.6107 102.468 28.664C102.116 28.7387 101.801 28.8667 101.524 29.048C101.246 29.2187 101.006 29.4533 100.804 29.752C100.612 30.0507 100.457 30.4187 100.34 30.856C100.222 31.2933 100.153 31.8107 100.132 32.408H100.228C100.377 32.2053 100.58 31.9973 100.836 31.784C101.102 31.5707 101.417 31.3893 101.78 31.24C102.153 31.0907 102.574 31.016 103.044 31.016C103.79 31.016 104.409 31.1813 104.9 31.512C105.401 31.832 105.774 32.28 106.02 32.856C106.276 33.432 106.404 34.104 106.404 34.872C106.404 35.8213 106.238 36.616 105.908 37.256C105.577 37.896 105.118 38.376 104.532 38.696C103.945 39.0053 103.262 39.16 102.484 39.16C101.897 39.16 101.364 39.048 100.884 38.824C100.404 38.5893 99.9931 38.248 99.6517 37.8C99.3104 37.352 99.0491 36.7973 98.8677 36.136C98.6864 35.4747 98.5957 34.712 98.5957 33.848ZM102.596 37.992C103.065 37.992 103.47 37.896 103.812 37.704C104.164 37.512 104.436 37.1973 104.628 36.76C104.82 36.3227 104.916 35.7413 104.916 35.016C104.916 34.1413 104.75 33.4533 104.42 32.952C104.1 32.44 103.566 32.184 102.82 32.184C102.35 32.184 101.924 32.2907 101.54 32.504C101.156 32.7067 100.836 32.9413 100.58 33.208C100.324 33.4747 100.142 33.6987 100.036 33.88C100.036 34.4027 100.073 34.9093 100.148 35.4C100.222 35.8907 100.35 36.3333 100.532 36.728C100.724 37.112 100.985 37.4213 101.316 37.656C101.657 37.88 102.084 37.992 102.596 37.992ZM115.774 34.616L112.814 30.424H114.414L116.622 33.656L118.814 30.424H120.398L117.438 34.616L120.558 39H118.958L116.622 35.576L114.254 39H112.67L115.774 34.616ZM134.474 34.696C134.474 35.4107 134.378 36.0453 134.186 36.6C134.005 37.144 133.738 37.608 133.386 37.992C133.045 38.376 132.623 38.6693 132.122 38.872C131.631 39.064 131.082 39.16 130.474 39.16C129.909 39.16 129.386 39.064 128.906 38.872C128.426 38.6693 128.01 38.376 127.658 37.992C127.306 37.608 127.029 37.144 126.826 36.6C126.634 36.0453 126.538 35.4107 126.538 34.696C126.538 33.7467 126.698 32.9467 127.018 32.296C127.338 31.6347 127.797 31.1333 128.394 30.792C128.991 30.44 129.701 30.264 130.522 30.264C131.301 30.264 131.983 30.44 132.57 30.792C133.167 31.1333 133.631 31.6347 133.962 32.296C134.303 32.9467 134.474 33.7467 134.474 34.696ZM127.994 34.696C127.994 35.368 128.079 35.9547 128.25 36.456C128.431 36.9467 128.709 37.3253 129.082 37.592C129.455 37.8587 129.93 37.992 130.506 37.992C131.082 37.992 131.557 37.8587 131.93 37.592C132.303 37.3253 132.575 36.9467 132.746 36.456C132.927 35.9547 133.018 35.368 133.018 34.696C133.018 34.0133 132.927 33.432 132.746 32.952C132.565 32.472 132.287 32.104 131.914 31.848C131.551 31.5813 131.077 31.448 130.49 31.448C129.615 31.448 128.981 31.736 128.586 32.312C128.191 32.888 127.994 33.6827 127.994 34.696ZM148.194 30.424V37.816H149.442V41.976H148.082V39H142.114V41.976H140.77V37.816H141.458C141.948 37.1333 142.354 36.392 142.674 35.592C143.004 34.7813 143.25 33.9387 143.41 33.064C143.58 32.1787 143.671 31.2987 143.682 30.424H148.194ZM144.93 31.528C144.887 32.2533 144.775 33.0053 144.594 33.784C144.412 34.552 144.178 35.288 143.89 35.992C143.612 36.696 143.287 37.304 142.914 37.816H146.834V31.528H144.93ZM157.57 35.656C157.57 35.752 157.565 35.8907 157.554 36.072C157.554 36.2427 157.549 36.4293 157.538 36.632C157.528 36.824 157.517 37.0107 157.506 37.192C157.496 37.3627 157.485 37.5013 157.474 37.608L162.066 30.424H163.794V39H162.482V33.944C162.482 33.7733 162.482 33.5493 162.482 33.272C162.493 32.9947 162.504 32.7227 162.514 32.456C162.525 32.1787 162.536 31.9707 162.546 31.832L157.986 39H156.242V30.424H157.57V35.656ZM180.844 30.424V39H179.58V33.528C179.58 33.304 179.585 33.0693 179.596 32.824C179.617 32.5787 179.638 32.3387 179.66 32.104H179.612L176.812 39H175.628L172.908 32.104H172.86C172.881 32.3387 172.892 32.5787 172.892 32.824C172.902 33.0693 172.908 33.32 172.908 33.576V39H171.644V30.424H173.516L176.22 37.32L178.972 30.424H180.844ZM196.157 34.696C196.157 35.4107 196.061 36.0453 195.869 36.6C195.688 37.144 195.421 37.608 195.069 37.992C194.728 38.376 194.307 38.6693 193.805 38.872C193.315 39.064 192.765 39.16 192.157 39.16C191.592 39.16 191.069 39.064 190.589 38.872C190.109 38.6693 189.693 38.376 189.341 37.992C188.989 37.608 188.712 37.144 188.509 36.6C188.317 36.0453 188.221 35.4107 188.221 34.696C188.221 33.7467 188.381 32.9467 188.701 32.296C189.021 31.6347 189.48 31.1333 190.077 30.792C190.675 30.44 191.384 30.264 192.205 30.264C192.984 30.264 193.667 30.44 194.253 30.792C194.851 31.1333 195.315 31.6347 195.645 32.296C195.987 32.9467 196.157 33.7467 196.157 34.696ZM189.677 34.696C189.677 35.368 189.763 35.9547 189.933 36.456C190.115 36.9467 190.392 37.3253 190.765 37.592C191.139 37.8587 191.613 37.992 192.189 37.992C192.765 37.992 193.24 37.8587 193.613 37.592C193.987 37.3253 194.259 36.9467 194.429 36.456C194.611 35.9547 194.701 35.368 194.701 34.696C194.701 34.0133 194.611 33.432 194.429 32.952C194.248 32.472 193.971 32.104 193.597 31.848C193.235 31.5813 192.76 31.448 192.173 31.448C191.299 31.448 190.664 31.736 190.269 32.312C189.875 32.888 189.677 33.6827 189.677 34.696ZM212.024 39V27.576H220.6V39H219.176V28.84H213.464V39H212.024ZM232.735 30.264C233.791 30.264 234.639 30.632 235.279 31.368C235.93 32.104 236.255 33.2133 236.255 34.696C236.255 35.6667 236.106 36.488 235.807 37.16C235.519 37.8213 235.108 38.3227 234.575 38.664C234.052 38.9947 233.434 39.16 232.719 39.16C232.282 39.16 231.892 39.1013 231.551 38.984C231.21 38.8667 230.916 38.7173 230.671 38.536C230.436 38.344 230.234 38.136 230.063 37.912H229.967C229.988 38.0933 230.01 38.3227 230.031 38.6C230.052 38.8773 230.063 39.1173 230.063 39.32V42.84H228.655V30.424H229.807L229.999 31.592H230.063C230.234 31.3467 230.436 31.1227 230.671 30.92C230.916 30.7173 231.204 30.5573 231.535 30.44C231.876 30.3227 232.276 30.264 232.735 30.264ZM232.479 31.448C231.903 31.448 231.439 31.56 231.087 31.784C230.735 31.9973 230.479 32.3227 230.319 32.76C230.159 33.1973 230.074 33.752 230.063 34.424V34.696C230.063 35.4 230.138 35.9973 230.287 36.488C230.436 36.9787 230.687 37.352 231.039 37.608C231.402 37.864 231.892 37.992 232.511 37.992C233.034 37.992 233.46 37.848 233.791 37.56C234.132 37.272 234.383 36.8827 234.543 36.392C234.714 35.8907 234.799 35.32 234.799 34.68C234.799 33.6987 234.607 32.9147 234.223 32.328C233.85 31.7413 233.268 31.448 232.479 31.448ZM244.947 35.656C244.947 35.752 244.941 35.8907 244.931 36.072C244.931 36.2427 244.925 36.4293 244.915 36.632C244.904 36.824 244.893 37.0107 244.883 37.192C244.872 37.3627 244.861 37.5013 244.851 37.608L249.443 30.424H251.171V39H249.859V33.944C249.859 33.7733 249.859 33.5493 249.859 33.272C249.869 32.9947 249.88 32.7227 249.891 32.456C249.901 32.1787 249.912 31.9707 249.923 31.832L245.363 39H243.619V30.424H244.947V35.656ZM260.428 30.424V33.992H265.084V30.424H266.492V39H265.084V35.176H260.428V39H259.02V30.424H260.428ZM274.855 39H273.223L275.671 35.4C275.341 35.3147 275.021 35.1813 274.711 35C274.402 34.808 274.151 34.5467 273.959 34.216C273.767 33.8747 273.671 33.4533 273.671 32.952C273.671 32.1307 273.949 31.5067 274.503 31.08C275.058 30.6427 275.794 30.424 276.711 30.424H280.551V39H279.143V35.592H277.063L274.855 39ZM275.031 32.968C275.031 33.4587 275.213 33.8267 275.575 34.072C275.949 34.3067 276.466 34.424 277.127 34.424H279.143V31.592H276.855C276.205 31.592 275.735 31.72 275.447 31.976C275.17 32.232 275.031 32.5627 275.031 32.968ZM294.305 31.608H291.505V39H290.113V31.608H287.345V30.424H294.305V31.608ZM305.066 33.944C305.813 33.944 306.432 34.0347 306.922 34.216C307.413 34.3973 307.781 34.6693 308.026 35.032C308.282 35.384 308.41 35.832 308.41 36.376C308.41 36.9093 308.288 37.3733 308.042 37.768C307.808 38.1627 307.44 38.4667 306.938 38.68C306.437 38.8933 305.792 39 305.002 39H301.114V30.424H302.522V33.944H305.066ZM307.002 36.456C307.002 35.9333 306.816 35.5813 306.442 35.4C306.08 35.208 305.568 35.112 304.906 35.112H302.522V37.864H304.938C305.536 37.864 306.026 37.7573 306.41 37.544C306.805 37.3307 307.002 36.968 307.002 36.456Z" fill="white"/>
<path d="M336.896 42.1402C336.119 42.8969 334.881 42.8969 334.104 42.1402L325.167 33.4325C323.881 32.1803 324.768 30 326.562 30L344.438 30C346.232 30 347.119 32.1803 345.833 33.4325L336.896 42.1402Z" fill="white"/>
</g>
<defs>
<filter id="filter0_d_116_393" x="0" y="0" width="397" height="94" filterUnits="userSpaceOnUse" color-interpolation-filters="sRGB">
<feFlood flood-opacity="0" result="BackgroundImageFix"/>
<feColorMatrix in="SourceAlpha" type="matrix" values="0 0 0 0 0 0 0 0 0 0 0 0 0 0 0 0 0 0 127 0" result="hardAlpha"/>
<feOffset dy="12"/>
<feGaussianBlur stdDeviation="16"/>
<feComposite in2="hardAlpha" operator="out"/>
<feColorMatrix type="matrix" values="0 0 0 0 0 0 0 0 0 0 0 0 0 0 0 0 0 0 0.15 0"/>
<feBlend mode="normal" in2="BackgroundImageFix" result="effect1_dropShadow_116_393"/>
<feBlend mode="normal" in="SourceGraphic" in2="effect1_dropShadow_116_393" result="shape"/>
</filter>
<radialGradient id="paint0_radial_116_393" cx="0" cy="0" r="1" gradientUnits="userSpaceOnUse" gradientTransform="translate(32 35.0002) scale(333 5130.18)">
<stop offset="0.328125" stop-color="#6424FD"/>
<stop offset="1" stop-color="#8B5BFF"/>
</radialGradient>
</defs>
</svg>
