<svg width="445" height="337" viewBox="0 0 445 337" fill="none" xmlns="http://www.w3.org/2000/svg">
<g filter="url(#filter0_d_277_29)">
<rect x="30" y="18" width="385" height="277" rx="20" fill="url(#paint0_radial_277_29)"/>
</g>
<path d="M75.2236 49.89C75.821 50.0673 76.2783 50.3567 76.5956 50.758C76.913 51.1593 77.0716 51.654 77.0716 52.242C77.0716 53.11 76.7403 53.7867 76.0776 54.272C75.4243 54.7573 74.4863 55 73.2636 55H68.4336V45.2H72.9976C74.1363 45.2 75.023 45.4193 75.6576 45.858C76.2923 46.2967 76.6096 46.922 76.6096 47.734C76.6096 48.2193 76.4883 48.6487 76.2456 49.022C76.003 49.386 75.6623 49.6753 75.2236 49.89ZM70.6876 49.26H72.8016C73.2963 49.26 73.6696 49.162 73.9216 48.966C74.1736 48.7607 74.2996 48.462 74.2996 48.07C74.2996 47.6873 74.169 47.3933 73.9076 47.188C73.6556 46.9827 73.287 46.88 72.8016 46.88H70.6876V49.26ZM73.1796 53.32C74.2436 53.32 74.7756 52.9 74.7756 52.06C74.7756 51.248 74.2436 50.842 73.1796 50.842H70.6876V53.32H73.1796ZM86.1033 47.356C87.2699 47.356 88.1659 47.636 88.7913 48.196C89.4166 48.7467 89.7293 49.582 89.7293 50.702V55H87.6853V54.062C87.2746 54.762 86.5093 55.112 85.3893 55.112C84.8106 55.112 84.3066 55.014 83.8773 54.818C83.4573 54.622 83.1353 54.3513 82.9113 54.006C82.6873 53.6607 82.5753 53.2687 82.5753 52.83C82.5753 52.13 82.8366 51.5793 83.3593 51.178C83.8913 50.7767 84.7079 50.576 85.8093 50.576H87.5453C87.5453 50.1 87.4006 49.736 87.1113 49.484C86.8219 49.2227 86.3879 49.092 85.8093 49.092C85.4079 49.092 85.0113 49.1573 84.6193 49.288C84.2366 49.4093 83.9099 49.5773 83.6393 49.792L82.8553 48.266C83.2659 47.9767 83.7559 47.7527 84.3253 47.594C84.9039 47.4353 85.4966 47.356 86.1033 47.356ZM85.9353 53.642C86.3086 53.642 86.6399 53.558 86.9293 53.39C87.2186 53.2127 87.4239 52.956 87.5453 52.62V51.85H86.0473C85.1513 51.85 84.7033 52.144 84.7033 52.732C84.7033 53.012 84.8106 53.236 85.0253 53.404C85.2493 53.5627 85.5526 53.642 85.9353 53.642ZM107.6 47.468V55H96.1065V47.468H98.2765V53.208H100.782V47.468H102.952V53.208H105.43V47.468H107.6ZM126.205 55.112C125.403 55.112 124.679 54.9487 124.035 54.622C123.401 54.286 122.901 53.824 122.537 53.236C122.183 52.648 122.005 51.9807 122.005 51.234C122.005 50.4873 122.183 49.82 122.537 49.232C122.901 48.644 123.401 48.1867 124.035 47.86C124.679 47.524 125.403 47.356 126.205 47.356C126.999 47.356 127.689 47.524 128.277 47.86C128.875 48.1867 129.309 48.658 129.579 49.274L127.885 50.184C127.493 49.4933 126.929 49.148 126.191 49.148C125.622 49.148 125.151 49.3347 124.777 49.708C124.404 50.0813 124.217 50.59 124.217 51.234C124.217 51.878 124.404 52.3867 124.777 52.76C125.151 53.1333 125.622 53.32 126.191 53.32C126.938 53.32 127.503 52.9747 127.885 52.284L129.579 53.208C129.309 53.8053 128.875 54.272 128.277 54.608C127.689 54.944 126.999 55.112 126.205 55.112ZM142.876 47.468V55H140.692V49.26H137.556V55H135.386V47.468H142.876ZM149.45 47.468H151.62V51.948L155.288 47.468H157.29V55H155.12V50.52L151.466 55H149.45V47.468ZM167.454 55.112C166.651 55.112 165.928 54.9487 165.284 54.622C164.649 54.286 164.15 53.824 163.786 53.236C163.431 52.648 163.254 51.9807 163.254 51.234C163.254 50.4873 163.431 49.82 163.786 49.232C164.15 48.644 164.649 48.1867 165.284 47.86C165.928 47.524 166.651 47.356 167.454 47.356C168.247 47.356 168.938 47.524 169.526 47.86C170.123 48.1867 170.557 48.658 170.828 49.274L169.134 50.184C168.742 49.4933 168.177 49.148 167.44 49.148C166.87 49.148 166.399 49.3347 166.026 49.708C165.652 50.0813 165.466 50.59 165.466 51.234C165.466 51.878 165.652 52.3867 166.026 52.76C166.399 53.1333 166.87 53.32 167.44 53.32C168.186 53.32 168.751 52.9747 169.134 52.284L170.828 53.208C170.557 53.8053 170.123 54.272 169.526 54.608C168.938 54.944 168.247 55.112 167.454 55.112ZM180.067 55.112C179.274 55.112 178.56 54.9487 177.925 54.622C177.3 54.286 176.81 53.824 176.455 53.236C176.101 52.648 175.923 51.9807 175.923 51.234C175.923 50.4873 176.101 49.82 176.455 49.232C176.81 48.644 177.3 48.1867 177.925 47.86C178.56 47.524 179.274 47.356 180.067 47.356C180.861 47.356 181.57 47.524 182.195 47.86C182.821 48.1867 183.311 48.644 183.665 49.232C184.02 49.82 184.197 50.4873 184.197 51.234C184.197 51.9807 184.02 52.648 183.665 53.236C183.311 53.824 182.821 54.286 182.195 54.622C181.57 54.9487 180.861 55.112 180.067 55.112ZM180.067 53.32C180.627 53.32 181.085 53.1333 181.439 52.76C181.803 52.3773 181.985 51.8687 181.985 51.234C181.985 50.5993 181.803 50.0953 181.439 49.722C181.085 49.3393 180.627 49.148 180.067 49.148C179.507 49.148 179.045 49.3393 178.681 49.722C178.317 50.0953 178.135 50.5993 178.135 51.234C178.135 51.8687 178.317 52.3773 178.681 52.76C179.045 53.1333 179.507 53.32 180.067 53.32ZM193.497 52.144H192.363V55H190.179V47.468H192.363V50.394H193.539L195.583 47.468H197.907L195.275 51.08L198.089 55H195.513L193.497 52.144ZM219.577 47.468V55H217.393V49.26H214.257V55H212.087V47.468H219.577ZM230.589 47.356C231.289 47.356 231.923 47.5193 232.493 47.846C233.071 48.1633 233.524 48.616 233.851 49.204C234.177 49.7827 234.341 50.4593 234.341 51.234C234.341 52.0087 234.177 52.69 233.851 53.278C233.524 53.8567 233.071 54.3093 232.493 54.636C231.923 54.9533 231.289 55.112 230.589 55.112C229.627 55.112 228.871 54.8087 228.321 54.202V57.716H226.137V47.468H228.223V48.336C228.764 47.6827 229.553 47.356 230.589 47.356ZM230.211 53.32C230.771 53.32 231.228 53.1333 231.583 52.76C231.947 52.3773 232.129 51.8687 232.129 51.234C232.129 50.5993 231.947 50.0953 231.583 49.722C231.228 49.3393 230.771 49.148 230.211 49.148C229.651 49.148 229.189 49.3393 228.825 49.722C228.47 50.0953 228.293 50.5993 228.293 51.234C228.293 51.8687 228.47 52.3773 228.825 52.76C229.189 53.1333 229.651 53.32 230.211 53.32ZM247.673 51.262C247.673 51.29 247.659 51.486 247.631 51.85H241.933C242.036 52.3167 242.279 52.6853 242.661 52.956C243.044 53.2267 243.52 53.362 244.089 53.362C244.481 53.362 244.827 53.306 245.125 53.194C245.433 53.0727 245.718 52.886 245.979 52.634L247.141 53.894C246.432 54.706 245.396 55.112 244.033 55.112C243.184 55.112 242.433 54.9487 241.779 54.622C241.126 54.286 240.622 53.824 240.267 53.236C239.913 52.648 239.735 51.9807 239.735 51.234C239.735 50.4967 239.908 49.834 240.253 49.246C240.608 48.6487 241.089 48.1867 241.695 47.86C242.311 47.524 242.997 47.356 243.753 47.356C244.491 47.356 245.158 47.5147 245.755 47.832C246.353 48.1493 246.819 48.6067 247.155 49.204C247.501 49.792 247.673 50.478 247.673 51.262ZM243.767 49.008C243.273 49.008 242.857 49.148 242.521 49.428C242.185 49.708 241.98 50.0907 241.905 50.576H245.615C245.541 50.1 245.335 49.722 244.999 49.442C244.663 49.1527 244.253 49.008 243.767 49.008ZM261.317 47.468V55H259.133V49.26H255.997V55H253.827V47.468H261.317ZM270.817 47.356C271.984 47.356 272.88 47.636 273.505 48.196C274.131 48.7467 274.443 49.582 274.443 50.702V55H272.399V54.062C271.989 54.762 271.223 55.112 270.103 55.112C269.525 55.112 269.021 55.014 268.591 54.818C268.171 54.622 267.849 54.3513 267.625 54.006C267.401 53.6607 267.289 53.2687 267.289 52.83C267.289 52.13 267.551 51.5793 268.073 51.178C268.605 50.7767 269.422 50.576 270.523 50.576H272.259C272.259 50.1 272.115 49.736 271.825 49.484C271.536 49.2227 271.102 49.092 270.523 49.092C270.122 49.092 269.725 49.1573 269.333 49.288C268.951 49.4093 268.624 49.5773 268.353 49.792L267.569 48.266C267.98 47.9767 268.47 47.7527 269.039 47.594C269.618 47.4353 270.211 47.356 270.817 47.356ZM270.649 53.642C271.023 53.642 271.354 53.558 271.643 53.39C271.933 53.2127 272.138 52.956 272.259 52.62V51.85H270.761C269.865 51.85 269.417 52.144 269.417 52.732C269.417 53.012 269.525 53.236 269.739 53.404C269.963 53.5627 270.267 53.642 270.649 53.642ZM285.259 47.356C285.959 47.356 286.593 47.5193 287.163 47.846C287.741 48.1633 288.194 48.616 288.521 49.204C288.847 49.7827 289.011 50.4593 289.011 51.234C289.011 52.0087 288.847 52.69 288.521 53.278C288.194 53.8567 287.741 54.3093 287.163 54.636C286.593 54.9533 285.959 55.112 285.259 55.112C284.297 55.112 283.541 54.8087 282.991 54.202V57.716H280.807V47.468H282.893V48.336C283.434 47.6827 284.223 47.356 285.259 47.356ZM284.881 53.32C285.441 53.32 285.898 53.1333 286.253 52.76C286.617 52.3773 286.799 51.8687 286.799 51.234C286.799 50.5993 286.617 50.0953 286.253 49.722C285.898 49.3393 285.441 49.148 284.881 49.148C284.321 49.148 283.859 49.3393 283.495 49.722C283.14 50.0953 282.963 50.5993 282.963 51.234C282.963 51.8687 283.14 52.3773 283.495 52.76C283.859 53.1333 284.321 53.32 284.881 53.32ZM297.824 47.356C298.991 47.356 299.887 47.636 300.512 48.196C301.138 48.7467 301.45 49.582 301.45 50.702V55H299.406V54.062C298.996 54.762 298.23 55.112 297.11 55.112C296.532 55.112 296.028 55.014 295.598 54.818C295.178 54.622 294.856 54.3513 294.632 54.006C294.408 53.6607 294.296 53.2687 294.296 52.83C294.296 52.13 294.558 51.5793 295.08 51.178C295.612 50.7767 296.429 50.576 297.53 50.576H299.266C299.266 50.1 299.122 49.736 298.832 49.484C298.543 49.2227 298.109 49.092 297.53 49.092C297.129 49.092 296.732 49.1573 296.34 49.288C295.958 49.4093 295.631 49.5773 295.36 49.792L294.576 48.266C294.987 47.9767 295.477 47.7527 296.046 47.594C296.625 47.4353 297.218 47.356 297.824 47.356ZM297.656 53.642C298.03 53.642 298.361 53.558 298.65 53.39C298.94 53.2127 299.145 52.956 299.266 52.62V51.85H297.768C296.872 51.85 296.424 52.144 296.424 52.732C296.424 53.012 296.532 53.236 296.746 53.404C296.97 53.5627 297.274 53.642 297.656 53.642ZM314.155 49.26H311.607V55H309.437V49.26H306.889V47.468H314.155V49.26ZM323.013 55.112C322.22 55.112 321.506 54.9487 320.871 54.622C320.246 54.286 319.756 53.824 319.401 53.236C319.047 52.648 318.869 51.9807 318.869 51.234C318.869 50.4873 319.047 49.82 319.401 49.232C319.756 48.644 320.246 48.1867 320.871 47.86C321.506 47.524 322.22 47.356 323.013 47.356C323.807 47.356 324.516 47.524 325.141 47.86C325.767 48.1867 326.257 48.644 326.611 49.232C326.966 49.82 327.143 50.4873 327.143 51.234C327.143 51.9807 326.966 52.648 326.611 53.236C326.257 53.824 325.767 54.286 325.141 54.622C324.516 54.9487 323.807 55.112 323.013 55.112ZM323.013 53.32C323.573 53.32 324.031 53.1333 324.385 52.76C324.749 52.3773 324.931 51.8687 324.931 51.234C324.931 50.5993 324.749 50.0953 324.385 49.722C324.031 49.3393 323.573 49.148 323.013 49.148C322.453 49.148 321.991 49.3393 321.627 49.722C321.263 50.0953 321.081 50.5993 321.081 51.234C321.081 51.8687 321.263 52.3773 321.627 52.76C321.991 53.1333 322.453 53.32 323.013 53.32ZM338.879 51.066C339.766 51.3647 340.209 51.962 340.209 52.858C340.209 53.5393 339.953 54.0667 339.439 54.44C338.926 54.8133 338.161 55 337.143 55H333.125V47.468H336.975C337.918 47.468 338.655 47.6407 339.187 47.986C339.719 48.322 339.985 48.798 339.985 49.414C339.985 49.7873 339.887 50.1187 339.691 50.408C339.505 50.688 339.234 50.9073 338.879 51.066ZM335.127 50.562H336.779C337.545 50.562 337.927 50.2913 337.927 49.75C337.927 49.218 337.545 48.952 336.779 48.952H335.127V50.562ZM336.961 53.516C337.764 53.516 338.165 53.2407 338.165 52.69C338.165 52.4007 338.072 52.1907 337.885 52.06C337.699 51.92 337.405 51.85 337.003 51.85H335.127V53.516H336.961Z" fill="black"/>
<path d="M355.573 42.4543C356.357 41.6555 357.643 41.6555 358.427 42.4543L368.384 52.5991C369.626 53.8643 368.73 56 366.957 56H347.043C345.27 56 344.374 53.8643 345.616 52.5991L355.573 42.4543Z" fill="url(#paint1_radial_277_29)"/>
<path d="M72 70L67 67.6132V73.3868L72 71V70ZM374 71L379 73.3868V67.6132L374 70V71ZM71.5 71H374.5V70H71.5V71Z" fill="black"/>
<path d="M114.105 112.084C113.134 112.084 112.257 111.869 111.473 111.44C110.698 111.011 110.087 110.418 109.639 109.662C109.2 108.897 108.981 108.043 108.981 107.1C108.981 106.157 109.2 105.308 109.639 104.552C110.087 103.787 110.703 103.189 111.487 102.76C112.271 102.331 113.148 102.116 114.119 102.116C114.847 102.116 115.519 102.237 116.135 102.48C116.751 102.723 117.274 103.077 117.703 103.544L117.045 104.202C116.28 103.427 115.314 103.04 114.147 103.04C113.372 103.04 112.668 103.217 112.033 103.572C111.398 103.927 110.899 104.412 110.535 105.028C110.18 105.644 110.003 106.335 110.003 107.1C110.003 107.865 110.18 108.556 110.535 109.172C110.899 109.788 111.398 110.273 112.033 110.628C112.668 110.983 113.372 111.16 114.147 111.16C115.323 111.16 116.289 110.768 117.045 109.984L117.703 110.642C117.274 111.109 116.746 111.468 116.121 111.72C115.505 111.963 114.833 112.084 114.105 112.084ZM129.059 105.518H126.273V112H125.279V105.518H122.493V104.636H129.059V105.518ZM138.771 104.58C139.461 104.58 140.087 104.739 140.647 105.056C141.207 105.364 141.645 105.803 141.963 106.372C142.28 106.941 142.439 107.59 142.439 108.318C142.439 109.055 142.28 109.709 141.963 110.278C141.645 110.847 141.207 111.291 140.647 111.608C140.096 111.916 139.471 112.07 138.771 112.07C138.173 112.07 137.632 111.949 137.147 111.706C136.671 111.454 136.279 111.09 135.971 110.614V114.716H134.977V104.636H135.929V106.092C136.227 105.607 136.619 105.233 137.105 104.972C137.599 104.711 138.155 104.58 138.771 104.58ZM138.701 111.188C139.214 111.188 139.681 111.071 140.101 110.838C140.521 110.595 140.847 110.255 141.081 109.816C141.323 109.377 141.445 108.878 141.445 108.318C141.445 107.758 141.323 107.263 141.081 106.834C140.847 106.395 140.521 106.055 140.101 105.812C139.681 105.569 139.214 105.448 138.701 105.448C138.178 105.448 137.707 105.569 137.287 105.812C136.876 106.055 136.549 106.395 136.307 106.834C136.073 107.263 135.957 107.758 135.957 108.318C135.957 108.878 136.073 109.377 136.307 109.816C136.549 110.255 136.876 110.595 137.287 110.838C137.707 111.071 138.178 111.188 138.701 111.188ZM149.054 104.636H150.048V110.488L154.962 104.636H155.844V112H154.85V106.148L149.95 112H149.054V104.636ZM165.847 108.724H164.167V112H163.173V104.636H164.167V107.87H165.861L168.451 104.636H169.529L166.631 108.206L169.739 112H168.563L165.847 108.724ZM178.608 112.07C177.88 112.07 177.227 111.911 176.648 111.594C176.079 111.277 175.631 110.833 175.304 110.264C174.977 109.685 174.814 109.037 174.814 108.318C174.814 107.599 174.977 106.955 175.304 106.386C175.631 105.817 176.079 105.373 176.648 105.056C177.227 104.739 177.88 104.58 178.608 104.58C179.243 104.58 179.807 104.706 180.302 104.958C180.806 105.201 181.203 105.56 181.492 106.036L180.75 106.54C180.507 106.176 180.199 105.905 179.826 105.728C179.453 105.541 179.047 105.448 178.608 105.448C178.076 105.448 177.595 105.569 177.166 105.812C176.746 106.045 176.415 106.381 176.172 106.82C175.939 107.259 175.822 107.758 175.822 108.318C175.822 108.887 175.939 109.391 176.172 109.83C176.415 110.259 176.746 110.595 177.166 110.838C177.595 111.071 178.076 111.188 178.608 111.188C179.047 111.188 179.453 111.099 179.826 110.922C180.199 110.745 180.507 110.474 180.75 110.11L181.492 110.614C181.203 111.09 180.806 111.454 180.302 111.706C179.798 111.949 179.233 112.07 178.608 112.07ZM202.691 103.096H199.247V112H198.225V103.096H194.781V102.2H202.691V103.096ZM210.875 104.58C211.836 104.58 212.574 104.823 213.087 105.308C213.6 105.784 213.857 106.493 213.857 107.436V112H212.905V110.852C212.681 111.235 212.35 111.533 211.911 111.748C211.482 111.963 210.968 112.07 210.371 112.07C209.55 112.07 208.896 111.874 208.411 111.482C207.926 111.09 207.683 110.572 207.683 109.928C207.683 109.303 207.907 108.799 208.355 108.416C208.812 108.033 209.536 107.842 210.525 107.842H212.863V107.394C212.863 106.759 212.686 106.279 212.331 105.952C211.976 105.616 211.458 105.448 210.777 105.448C210.31 105.448 209.862 105.527 209.433 105.686C209.004 105.835 208.635 106.045 208.327 106.316L207.879 105.574C208.252 105.257 208.7 105.014 209.223 104.846C209.746 104.669 210.296 104.58 210.875 104.58ZM210.525 111.286C211.085 111.286 211.566 111.16 211.967 110.908C212.368 110.647 212.667 110.273 212.863 109.788V108.584H210.553C209.293 108.584 208.663 109.023 208.663 109.9C208.663 110.329 208.826 110.67 209.153 110.922C209.48 111.165 209.937 111.286 210.525 111.286ZM224.553 104.818C225.234 104.818 225.841 104.972 226.373 105.28C226.914 105.579 227.334 106.003 227.633 106.554C227.932 107.095 228.081 107.716 228.081 108.416C228.081 109.135 227.922 109.774 227.605 110.334C227.297 110.885 226.863 111.314 226.303 111.622C225.743 111.93 225.099 112.084 224.371 112.084C223.148 112.084 222.201 111.655 221.529 110.796C220.857 109.937 220.521 108.752 220.521 107.24C220.521 105.663 220.82 104.454 221.417 103.614C222.024 102.774 222.966 102.205 224.245 101.906L227.549 101.15L227.717 102.06L224.609 102.774C223.554 103.007 222.78 103.423 222.285 104.02C221.79 104.608 221.52 105.481 221.473 106.638C221.772 106.069 222.187 105.625 222.719 105.308C223.251 104.981 223.862 104.818 224.553 104.818ZM224.399 111.258C224.912 111.258 225.37 111.141 225.771 110.908C226.182 110.665 226.499 110.329 226.723 109.9C226.956 109.471 227.073 108.985 227.073 108.444C227.073 107.903 226.961 107.427 226.737 107.016C226.513 106.605 226.196 106.288 225.785 106.064C225.384 105.831 224.922 105.714 224.399 105.714C223.876 105.714 223.41 105.831 222.999 106.064C222.598 106.288 222.28 106.605 222.047 107.016C221.823 107.427 221.711 107.903 221.711 108.444C221.711 108.985 221.823 109.471 222.047 109.9C222.28 110.329 222.602 110.665 223.013 110.908C223.424 111.141 223.886 111.258 224.399 111.258ZM240.671 104.636V112H239.677V105.518H236.149L236.051 107.338C235.976 108.869 235.799 110.045 235.519 110.866C235.239 111.687 234.739 112.098 234.021 112.098C233.825 112.098 233.587 112.061 233.307 111.986L233.377 111.132C233.545 111.169 233.661 111.188 233.727 111.188C234.109 111.188 234.399 111.011 234.595 110.656C234.791 110.301 234.921 109.863 234.987 109.34C235.052 108.817 235.108 108.127 235.155 107.268L235.281 104.636H240.671ZM248.046 112.07C247.841 112.07 247.664 111.995 247.514 111.846C247.374 111.697 247.304 111.515 247.304 111.3C247.304 111.085 247.374 110.908 247.514 110.768C247.664 110.619 247.841 110.544 248.046 110.544C248.252 110.544 248.429 110.619 248.578 110.768C248.728 110.908 248.802 111.085 248.802 111.3C248.802 111.515 248.728 111.697 248.578 111.846C248.429 111.995 248.252 112.07 248.046 112.07ZM255.507 110.544C255.722 110.544 255.899 110.619 256.039 110.768C256.179 110.908 256.249 111.085 256.249 111.3C256.249 111.412 256.23 111.533 256.193 111.664C256.165 111.795 256.118 111.944 256.053 112.112L255.465 114.044H254.793L255.269 112.014C255.12 111.967 254.998 111.883 254.905 111.762C254.812 111.631 254.765 111.477 254.765 111.3C254.765 111.085 254.835 110.908 254.975 110.768C255.115 110.619 255.292 110.544 255.507 110.544ZM273.66 106.4C274.687 106.456 275.466 106.736 275.998 107.24C276.539 107.735 276.81 108.383 276.81 109.186C276.81 109.746 276.675 110.245 276.404 110.684C276.133 111.113 275.732 111.454 275.2 111.706C274.668 111.958 274.019 112.084 273.254 112.084C272.545 112.084 271.873 111.972 271.238 111.748C270.613 111.515 270.109 111.207 269.726 110.824L270.216 110.026C270.543 110.362 270.977 110.637 271.518 110.852C272.059 111.057 272.638 111.16 273.254 111.16C274.057 111.16 274.677 110.987 275.116 110.642C275.555 110.287 275.774 109.802 275.774 109.186C275.774 108.579 275.555 108.103 275.116 107.758C274.677 107.413 274.015 107.24 273.128 107.24H272.428V106.498L275.144 103.096H270.132V102.2H276.432V102.914L273.66 106.4ZM286.616 112.084C285.86 112.084 285.184 111.883 284.586 111.482C283.998 111.081 283.536 110.507 283.2 109.76C282.874 109.004 282.71 108.117 282.71 107.1C282.71 106.083 282.874 105.201 283.2 104.454C283.536 103.698 283.998 103.119 284.586 102.718C285.184 102.317 285.86 102.116 286.616 102.116C287.372 102.116 288.044 102.317 288.632 102.718C289.23 103.119 289.696 103.698 290.032 104.454C290.368 105.201 290.536 106.083 290.536 107.1C290.536 108.117 290.368 109.004 290.032 109.76C289.696 110.507 289.23 111.081 288.632 111.482C288.044 111.883 287.372 112.084 286.616 112.084ZM286.616 111.16C287.186 111.16 287.685 111.001 288.114 110.684C288.553 110.367 288.894 109.905 289.136 109.298C289.379 108.691 289.5 107.959 289.5 107.1C289.5 106.241 289.379 105.509 289.136 104.902C288.894 104.295 288.553 103.833 288.114 103.516C287.685 103.199 287.186 103.04 286.616 103.04C286.047 103.04 285.543 103.199 285.104 103.516C284.675 103.833 284.339 104.295 284.096 104.902C283.854 105.509 283.732 106.241 283.732 107.1C283.732 107.959 283.854 108.691 284.096 109.298C284.339 109.905 284.675 110.367 285.104 110.684C285.543 111.001 286.047 111.16 286.616 111.16ZM307.31 104.636V112H297.146V104.636H298.14V111.132H301.752V104.636H302.746V111.132H306.316V104.636H307.31ZM319.808 105.518H317.022V112H316.028V105.518H313.242V104.636H319.808V105.518Z" fill="black"/>
<path d="M75.1516 145.484L75.6516 145.482L75.6484 144.482L75.1484 144.484L75.1516 145.484ZM85.4484 144.451L84.9484 144.452L84.9516 145.452L85.4516 145.451L85.4484 144.451ZM95.7516 145.418L96.2516 145.416L96.2484 144.416L95.7484 144.418L95.7516 145.418ZM106.048 144.385L105.548 144.387L105.552 145.387L106.052 145.385L106.048 144.385ZM116.352 145.352L116.852 145.351L116.848 144.351L116.348 144.352L116.352 145.352ZM126.648 144.319L126.148 144.321L126.152 145.321L126.652 145.319L126.648 144.319ZM136.952 145.286L137.452 145.285L137.448 144.285L136.948 144.286L136.952 145.286ZM147.248 144.254L146.748 144.255L146.752 145.255L147.252 145.254L147.248 144.254ZM157.552 145.221L158.052 145.219L158.048 144.219L157.548 144.221L157.552 145.221ZM167.848 144.188L167.348 144.189L167.352 145.189L167.852 145.188L167.848 144.188ZM178.152 145.155L178.652 145.153L178.648 144.153L178.148 144.155L178.152 145.155ZM188.448 144.122L187.948 144.124L187.952 145.124L188.452 145.122L188.448 144.122ZM198.752 145.089L199.252 145.088L199.248 144.088L198.748 144.089L198.752 145.089ZM209.048 144.056L208.548 144.058L208.552 145.058L209.052 145.056L209.048 144.056ZM219.352 145.024L219.852 145.022L219.848 144.022L219.348 144.024L219.352 145.024ZM229.648 143.991L229.148 143.992L229.152 144.992L229.652 144.991L229.648 143.991ZM239.952 144.958L240.452 144.956L240.448 143.956L239.948 143.958L239.952 144.958ZM250.248 143.925L249.748 143.927L249.752 144.927L250.252 144.925L250.248 143.925ZM260.552 144.892L261.052 144.891L261.048 143.891L260.548 143.892L260.552 144.892ZM270.848 143.859L270.348 143.861L270.352 144.861L270.852 144.859L270.848 143.859ZM281.152 144.826L281.652 144.825L281.648 143.825L281.148 143.826L281.152 144.826ZM291.448 143.794L290.948 143.795L290.952 144.795L291.452 144.794L291.448 143.794ZM301.752 144.761L302.252 144.759L302.248 143.759L301.748 143.761L301.752 144.761ZM312.048 143.728L311.548 143.729L311.552 144.729L312.052 144.728L312.048 143.728ZM322.352 144.695L322.852 144.693L322.848 143.693L322.348 143.695L322.352 144.695ZM332.648 143.662L332.148 143.664L332.152 144.664L332.652 144.662L332.648 143.662ZM342.952 144.629L343.452 144.628L343.448 143.628L342.948 143.629L342.952 144.629ZM353.248 143.596L352.748 143.598L352.752 144.598L353.252 144.596L353.248 143.596ZM363.552 144.564L364.052 144.562L364.048 143.562L363.548 143.564L363.552 144.564ZM373.848 143.531L373.348 143.532L373.352 144.532L373.852 144.531L373.848 143.531ZM70.0016 145.5L75.1516 145.484L75.1484 144.484L69.9984 144.5L70.0016 145.5ZM85.4516 145.451L95.7516 145.418L95.7484 144.418L85.4484 144.451L85.4516 145.451ZM106.052 145.385L116.352 145.352L116.348 144.352L106.048 144.385L106.052 145.385ZM126.652 145.319L136.952 145.286L136.948 144.286L126.648 144.319L126.652 145.319ZM147.252 145.254L157.552 145.221L157.548 144.221L147.248 144.254L147.252 145.254ZM167.852 145.188L178.152 145.155L178.148 144.155L167.848 144.188L167.852 145.188ZM188.452 145.122L198.752 145.089L198.748 144.089L188.448 144.122L188.452 145.122ZM209.052 145.056L219.352 145.024L219.348 144.024L209.048 144.056L209.052 145.056ZM229.652 144.991L239.952 144.958L239.948 143.958L229.648 143.991L229.652 144.991ZM250.252 144.925L260.552 144.892L260.548 143.892L250.248 143.925L250.252 144.925ZM270.852 144.859L281.152 144.826L281.148 143.826L270.848 143.859L270.852 144.859ZM291.452 144.794L301.752 144.761L301.748 143.761L291.448 143.794L291.452 144.794ZM312.052 144.728L322.352 144.695L322.348 143.695L312.048 143.728L312.052 144.728ZM332.652 144.662L342.952 144.629L342.948 143.629L332.648 143.662L332.652 144.662ZM353.252 144.596L363.552 144.564L363.548 143.564L353.248 143.596L353.252 144.596ZM373.852 144.531L379.002 144.514L378.998 143.514L373.848 143.531L373.852 144.531Z" fill="black"/>
<path d="M74.1516 220.469L74.6516 220.468L74.6484 219.468L74.1484 219.469L74.1516 220.469ZM84.4484 219.436L83.9484 219.438L83.9516 220.438L84.4516 220.436L84.4484 219.436ZM94.7516 220.404L95.2516 220.402L95.2484 219.402L94.7484 219.404L94.7516 220.404ZM105.048 219.371L104.548 219.372L104.552 220.372L105.052 220.371L105.048 219.371ZM115.352 220.338L115.852 220.336L115.848 219.336L115.348 219.338L115.352 220.338ZM125.648 219.305L125.148 219.307L125.152 220.307L125.652 220.305L125.648 219.305ZM135.952 220.272L136.452 220.271L136.448 219.271L135.948 219.272L135.952 220.272ZM146.248 219.239L145.748 219.241L145.752 220.241L146.252 220.239L146.248 219.239ZM156.552 220.206L157.052 220.205L157.048 219.205L156.548 219.206L156.552 220.206ZM166.848 219.174L166.348 219.175L166.352 220.175L166.852 220.174L166.848 219.174ZM177.152 220.141L177.652 220.139L177.648 219.139L177.148 219.141L177.152 220.141ZM187.448 219.108L186.948 219.109L186.952 220.109L187.452 220.108L187.448 219.108ZM197.752 220.075L198.252 220.073L198.248 219.073L197.748 219.075L197.752 220.075ZM208.048 219.042L207.548 219.044L207.552 220.044L208.052 220.042L208.048 219.042ZM218.352 220.009L218.852 220.008L218.848 219.008L218.348 219.009L218.352 220.009ZM228.648 218.976L228.148 218.978L228.152 219.978L228.652 219.976L228.648 218.976ZM238.952 219.944L239.452 219.942L239.448 218.942L238.948 218.944L238.952 219.944ZM249.248 218.911L248.748 218.912L248.752 219.912L249.252 219.911L249.248 218.911ZM259.552 219.878L260.052 219.876L260.048 218.876L259.548 218.878L259.552 219.878ZM269.848 218.845L269.348 218.847L269.352 219.847L269.852 219.845L269.848 218.845ZM280.152 219.812L280.652 219.811L280.648 218.811L280.148 218.812L280.152 219.812ZM290.448 218.779L289.948 218.781L289.952 219.781L290.452 219.779L290.448 218.779ZM300.752 219.746L301.252 219.745L301.248 218.745L300.748 218.746L300.752 219.746ZM311.048 218.714L310.548 218.715L310.552 219.715L311.052 219.714L311.048 218.714ZM321.352 219.681L321.852 219.679L321.848 218.679L321.348 218.681L321.352 219.681ZM331.648 218.648L331.148 218.649L331.152 219.649L331.652 219.648L331.648 218.648ZM341.952 219.615L342.452 219.613L342.448 218.613L341.948 218.615L341.952 219.615ZM352.248 218.582L351.748 218.584L351.752 219.584L352.252 219.582L352.248 218.582ZM362.552 219.549L363.052 219.548L363.048 218.548L362.548 218.549L362.552 219.549ZM372.848 218.516L372.348 218.518L372.352 219.518L372.852 219.516L372.848 218.516ZM69.0016 220.486L74.1516 220.469L74.1484 219.469L68.9984 219.486L69.0016 220.486ZM84.4516 220.436L94.7516 220.404L94.7484 219.404L84.4484 219.436L84.4516 220.436ZM105.052 220.371L115.352 220.338L115.348 219.338L105.048 219.371L105.052 220.371ZM125.652 220.305L135.952 220.272L135.948 219.272L125.648 219.305L125.652 220.305ZM146.252 220.239L156.552 220.206L156.548 219.206L146.248 219.239L146.252 220.239ZM166.852 220.174L177.152 220.141L177.148 219.141L166.848 219.174L166.852 220.174ZM187.452 220.108L197.752 220.075L197.748 219.075L187.448 219.108L187.452 220.108ZM208.052 220.042L218.352 220.009L218.348 219.009L208.048 219.042L208.052 220.042ZM228.652 219.976L238.952 219.944L238.948 218.944L228.648 218.976L228.652 219.976ZM249.252 219.911L259.552 219.878L259.548 218.878L249.248 218.911L249.252 219.911ZM269.852 219.845L280.152 219.812L280.148 218.812L269.848 218.845L269.852 219.845ZM290.452 219.779L300.752 219.746L300.748 218.746L290.448 218.779L290.452 219.779ZM311.052 219.714L321.352 219.681L321.348 218.681L311.048 218.714L311.052 219.714ZM331.652 219.648L341.952 219.615L341.948 218.615L331.648 218.648L331.652 219.648ZM352.252 219.582L362.552 219.549L362.548 218.549L352.248 218.582L352.252 219.582ZM372.852 219.516L378.002 219.5L377.998 218.5L372.848 218.516L372.852 219.516Z" fill="black"/>
<path d="M94.6187 176.084C93.648 176.084 92.7707 175.869 91.9867 175.44C91.212 175.011 90.6007 174.418 90.1527 173.662C89.714 172.897 89.4947 172.043 89.4947 171.1C89.4947 170.157 89.714 169.308 90.1527 168.552C90.6007 167.787 91.2167 167.189 92.0007 166.76C92.7847 166.331 93.662 166.116 94.6327 166.116C95.3607 166.116 96.0327 166.237 96.6487 166.48C97.2647 166.723 97.7873 167.077 98.2167 167.544L97.5587 168.202C96.7933 167.427 95.8273 167.04 94.6607 167.04C93.886 167.04 93.1813 167.217 92.5467 167.572C91.912 167.927 91.4127 168.412 91.0487 169.028C90.694 169.644 90.5167 170.335 90.5167 171.1C90.5167 171.865 90.694 172.556 91.0487 173.172C91.4127 173.788 91.912 174.273 92.5467 174.628C93.1813 174.983 93.886 175.16 94.6607 175.16C95.8367 175.16 96.8027 174.768 97.5587 173.984L98.2167 174.642C97.7873 175.109 97.26 175.468 96.6347 175.72C96.0187 175.963 95.3467 176.084 94.6187 176.084ZM110.856 168.636L107.174 176.882C106.875 177.573 106.53 178.063 106.138 178.352C105.746 178.641 105.275 178.786 104.724 178.786C104.369 178.786 104.038 178.73 103.73 178.618C103.422 178.506 103.156 178.338 102.932 178.114L103.394 177.372C103.767 177.745 104.215 177.932 104.738 177.932C105.074 177.932 105.359 177.839 105.592 177.652C105.835 177.465 106.059 177.148 106.264 176.7L106.586 175.986L103.296 168.636H104.332L107.104 174.894L109.876 168.636H110.856ZM123.493 168.636V176H122.499V169.518H117.879V176H116.885V168.636H123.493ZM134.592 168.58C135.283 168.58 135.908 168.739 136.468 169.056C137.028 169.364 137.467 169.803 137.784 170.372C138.102 170.941 138.26 171.59 138.26 172.318C138.26 173.055 138.102 173.709 137.784 174.278C137.467 174.847 137.028 175.291 136.468 175.608C135.918 175.916 135.292 176.07 134.592 176.07C133.995 176.07 133.454 175.949 132.968 175.706C132.492 175.454 132.1 175.09 131.792 174.614V178.716H130.798V168.636H131.75V170.092C132.049 169.607 132.441 169.233 132.926 168.972C133.421 168.711 133.976 168.58 134.592 168.58ZM134.522 175.188C135.036 175.188 135.502 175.071 135.922 174.838C136.342 174.595 136.669 174.255 136.902 173.816C137.145 173.377 137.266 172.878 137.266 172.318C137.266 171.758 137.145 171.263 136.902 170.834C136.669 170.395 136.342 170.055 135.922 169.812C135.502 169.569 135.036 169.448 134.522 169.448C134 169.448 133.528 169.569 133.108 169.812C132.698 170.055 132.371 170.395 132.128 170.834C131.895 171.263 131.778 171.758 131.778 172.318C131.778 172.878 131.895 173.377 132.128 173.816C132.371 174.255 132.698 174.595 133.108 174.838C133.528 175.071 134 175.188 134.522 175.188ZM144.876 168.636H145.87V174.488L150.784 168.636H151.666V176H150.672V170.148L145.772 176H144.876V168.636ZM165.015 168.636V176H164.021V169.518H160.493L160.395 171.338C160.32 172.869 160.143 174.045 159.863 174.866C159.583 175.687 159.083 176.098 158.365 176.098C158.169 176.098 157.931 176.061 157.651 175.986L157.721 175.132C157.889 175.169 158.005 175.188 158.071 175.188C158.453 175.188 158.743 175.011 158.939 174.656C159.135 174.301 159.265 173.863 159.331 173.34C159.396 172.817 159.452 172.127 159.499 171.268L159.625 168.636H165.015ZM174.854 168.58C175.816 168.58 176.553 168.823 177.066 169.308C177.58 169.784 177.836 170.493 177.836 171.436V176H176.884V174.852C176.66 175.235 176.329 175.533 175.89 175.748C175.461 175.963 174.948 176.07 174.35 176.07C173.529 176.07 172.876 175.874 172.39 175.482C171.905 175.09 171.662 174.572 171.662 173.928C171.662 173.303 171.886 172.799 172.334 172.416C172.792 172.033 173.515 171.842 174.504 171.842H176.842V171.394C176.842 170.759 176.665 170.279 176.31 169.952C175.956 169.616 175.438 169.448 174.756 169.448C174.29 169.448 173.842 169.527 173.412 169.686C172.983 169.835 172.614 170.045 172.306 170.316L171.858 169.574C172.232 169.257 172.68 169.014 173.202 168.846C173.725 168.669 174.276 168.58 174.854 168.58ZM174.504 175.286C175.064 175.286 175.545 175.16 175.946 174.908C176.348 174.647 176.646 174.273 176.842 173.788V172.584H174.532C173.272 172.584 172.642 173.023 172.642 173.9C172.642 174.329 172.806 174.67 173.132 174.922C173.459 175.165 173.916 175.286 174.504 175.286ZM193.195 168.636V176H192.285V170.176L189.303 175.104H188.855L185.873 170.162V176H184.963V168.636H185.971L189.093 173.942L192.271 168.636H193.195ZM200.503 168.636H201.497V174.488L206.411 168.636H207.293V176H206.299V170.148L201.399 176H200.503V168.636ZM214.622 168.636H215.616V171.898H220.25V168.636H221.244V176H220.25V172.752H215.616V176H214.622V168.636ZM243.343 167.096H239.899V176H238.877V167.096H235.433V166.2H243.343V167.096ZM251.527 168.58C252.489 168.58 253.226 168.823 253.739 169.308C254.253 169.784 254.509 170.493 254.509 171.436V176H253.557V174.852C253.333 175.235 253.002 175.533 252.563 175.748C252.134 175.963 251.621 176.07 251.023 176.07C250.202 176.07 249.549 175.874 249.063 175.482C248.578 175.09 248.335 174.572 248.335 173.928C248.335 173.303 248.559 172.799 249.007 172.416C249.465 172.033 250.188 171.842 251.177 171.842H253.515V171.394C253.515 170.759 253.338 170.279 252.983 169.952C252.629 169.616 252.111 169.448 251.429 169.448C250.963 169.448 250.515 169.527 250.085 169.686C249.656 169.835 249.287 170.045 248.979 170.316L248.531 169.574C248.905 169.257 249.353 169.014 249.875 168.846C250.398 168.669 250.949 168.58 251.527 168.58ZM251.177 175.286C251.737 175.286 252.218 175.16 252.619 174.908C253.021 174.647 253.319 174.273 253.515 173.788V172.584H251.205C249.945 172.584 249.315 173.023 249.315 173.9C249.315 174.329 249.479 174.67 249.805 174.922C250.132 175.165 250.589 175.286 251.177 175.286ZM265.205 168.818C265.887 168.818 266.493 168.972 267.025 169.28C267.567 169.579 267.987 170.003 268.285 170.554C268.584 171.095 268.733 171.716 268.733 172.416C268.733 173.135 268.575 173.774 268.257 174.334C267.949 174.885 267.515 175.314 266.955 175.622C266.395 175.93 265.751 176.084 265.023 176.084C263.801 176.084 262.853 175.655 262.181 174.796C261.509 173.937 261.173 172.752 261.173 171.24C261.173 169.663 261.472 168.454 262.069 167.614C262.676 166.774 263.619 166.205 264.897 165.906L268.201 165.15L268.369 166.06L265.261 166.774C264.207 167.007 263.432 167.423 262.937 168.02C262.443 168.608 262.172 169.481 262.125 170.638C262.424 170.069 262.839 169.625 263.371 169.308C263.903 168.981 264.515 168.818 265.205 168.818ZM265.051 175.258C265.565 175.258 266.022 175.141 266.423 174.908C266.834 174.665 267.151 174.329 267.375 173.9C267.609 173.471 267.725 172.985 267.725 172.444C267.725 171.903 267.613 171.427 267.389 171.016C267.165 170.605 266.848 170.288 266.437 170.064C266.036 169.831 265.574 169.714 265.051 169.714C264.529 169.714 264.062 169.831 263.651 170.064C263.25 170.288 262.933 170.605 262.699 171.016C262.475 171.427 262.363 171.903 262.363 172.444C262.363 172.985 262.475 173.471 262.699 173.9C262.933 174.329 263.255 174.665 263.665 174.908C264.076 175.141 264.538 175.258 265.051 175.258ZM281.323 168.636V176H280.329V169.518H276.801L276.703 171.338C276.628 172.869 276.451 174.045 276.171 174.866C275.891 175.687 275.392 176.098 274.673 176.098C274.477 176.098 274.239 176.061 273.959 175.986L274.029 175.132C274.197 175.169 274.314 175.188 274.379 175.188C274.762 175.188 275.051 175.011 275.247 174.656C275.443 174.301 275.574 173.863 275.639 173.34C275.704 172.817 275.76 172.127 275.807 171.268L275.933 168.636H281.323ZM288.699 176.07C288.493 176.07 288.316 175.995 288.167 175.846C288.027 175.697 287.957 175.515 287.957 175.3C287.957 175.085 288.027 174.908 288.167 174.768C288.316 174.619 288.493 174.544 288.699 174.544C288.904 174.544 289.081 174.619 289.231 174.768C289.38 174.908 289.455 175.085 289.455 175.3C289.455 175.515 289.38 175.697 289.231 175.846C289.081 175.995 288.904 176.07 288.699 176.07ZM310.226 175.104V176H303.352V175.286L307.426 171.296C307.939 170.792 308.284 170.358 308.462 169.994C308.648 169.621 308.742 169.247 308.742 168.874C308.742 168.295 308.541 167.847 308.14 167.53C307.748 167.203 307.183 167.04 306.446 167.04C305.298 167.04 304.406 167.404 303.772 168.132L303.058 167.516C303.44 167.068 303.926 166.723 304.514 166.48C305.111 166.237 305.783 166.116 306.53 166.116C307.528 166.116 308.317 166.354 308.896 166.83C309.484 167.297 309.778 167.941 309.778 168.762C309.778 169.266 309.666 169.751 309.442 170.218C309.218 170.685 308.793 171.221 308.168 171.828L304.836 175.104H310.226ZM318.547 170.218C319.965 170.218 320.997 170.475 321.641 170.988C322.294 171.492 322.621 172.201 322.621 173.116C322.621 173.685 322.485 174.194 322.215 174.642C321.953 175.09 321.557 175.445 321.025 175.706C320.493 175.958 319.839 176.084 319.065 176.084C318.365 176.084 317.697 175.972 317.063 175.748C316.437 175.515 315.933 175.207 315.551 174.824L316.041 174.026C316.367 174.362 316.797 174.637 317.329 174.852C317.861 175.057 318.435 175.16 319.051 175.16C319.863 175.16 320.488 174.978 320.927 174.614C321.375 174.25 321.599 173.765 321.599 173.158C321.599 172.486 321.347 171.977 320.843 171.632C320.348 171.287 319.508 171.114 318.323 171.114H316.237L316.741 166.2H322.103V167.096H317.623L317.287 170.218H318.547ZM337.298 168.636V176H336.388V170.176L333.406 175.104H332.958L329.976 170.162V176H329.066V168.636H330.074L333.196 173.942L336.374 168.636H337.298ZM349.815 169.518H345.601V176H344.607V168.636H349.815V169.518ZM204.766 190.424H202.806V193H201.798V190.424H196.268V189.696L201.462 183.2H202.582L197.57 189.528H201.826V187.26H202.806V189.528H204.766V190.424ZM214.078 193.084C213.322 193.084 212.645 192.883 212.048 192.482C211.46 192.081 210.998 191.507 210.662 190.76C210.335 190.004 210.172 189.117 210.172 188.1C210.172 187.083 210.335 186.201 210.662 185.454C210.998 184.698 211.46 184.119 212.048 183.718C212.645 183.317 213.322 183.116 214.078 183.116C214.834 183.116 215.506 183.317 216.094 183.718C216.691 184.119 217.158 184.698 217.494 185.454C217.83 186.201 217.998 187.083 217.998 188.1C217.998 189.117 217.83 190.004 217.494 190.76C217.158 191.507 216.691 192.081 216.094 192.482C215.506 192.883 214.834 193.084 214.078 193.084ZM214.078 192.16C214.647 192.16 215.146 192.001 215.576 191.684C216.014 191.367 216.355 190.905 216.598 190.298C216.84 189.691 216.962 188.959 216.962 188.1C216.962 187.241 216.84 186.509 216.598 185.902C216.355 185.295 216.014 184.833 215.576 184.516C215.146 184.199 214.647 184.04 214.078 184.04C213.508 184.04 213.004 184.199 212.566 184.516C212.136 184.833 211.8 185.295 211.558 185.902C211.315 186.509 211.194 187.241 211.194 188.1C211.194 188.959 211.315 189.691 211.558 190.298C211.8 190.905 212.136 191.367 212.566 191.684C213.004 192.001 213.508 192.16 214.078 192.16ZM234.771 185.636V193H224.607V185.636H225.601V192.132H229.213V185.636H230.207V192.132H233.777V185.636H234.771ZM247.269 186.518H244.483V193H243.489V186.518H240.703V185.636H247.269V186.518Z" fill="black"/>
<path d="M82.898 246.2V256H81.876V247.096H75.674V256H74.652V246.2H82.898ZM92.9807 248.58C93.9421 248.58 94.6794 248.823 95.1927 249.308C95.7061 249.784 95.9627 250.493 95.9627 251.436V256H95.0107V254.852C94.7867 255.235 94.4554 255.533 94.0167 255.748C93.5874 255.963 93.0741 256.07 92.4767 256.07C91.6554 256.07 91.0021 255.874 90.5167 255.482C90.0314 255.09 89.7887 254.572 89.7887 253.928C89.7887 253.303 90.0127 252.799 90.4607 252.416C90.9181 252.033 91.6414 251.842 92.6307 251.842H94.9687V251.394C94.9687 250.759 94.7914 250.279 94.4367 249.952C94.0821 249.616 93.5641 249.448 92.8827 249.448C92.4161 249.448 91.9681 249.527 91.5387 249.686C91.1094 249.835 90.7407 250.045 90.4327 250.316L89.9847 249.574C90.3581 249.257 90.8061 249.014 91.3287 248.846C91.8514 248.669 92.4021 248.58 92.9807 248.58ZM92.6307 255.286C93.1907 255.286 93.6714 255.16 94.0727 254.908C94.4741 254.647 94.7727 254.273 94.9687 253.788V252.584H92.6587C91.3987 252.584 90.7687 253.023 90.7687 253.9C90.7687 254.329 90.9321 254.67 91.2587 254.922C91.5854 255.165 92.0427 255.286 92.6307 255.286ZM103.089 248.636H104.083V251.898H108.717V248.636H109.711V256H108.717V252.752H104.083V256H103.089V248.636ZM119.55 248.58C120.511 248.58 121.249 248.823 121.762 249.308C122.275 249.784 122.532 250.493 122.532 251.436V256H121.58V254.852C121.356 255.235 121.025 255.533 120.586 255.748C120.157 255.963 119.643 256.07 119.046 256.07C118.225 256.07 117.571 255.874 117.086 255.482C116.601 255.09 116.358 254.572 116.358 253.928C116.358 253.303 116.582 252.799 117.03 252.416C117.487 252.033 118.211 251.842 119.2 251.842H121.538V251.394C121.538 250.759 121.361 250.279 121.006 249.952C120.651 249.616 120.133 249.448 119.452 249.448C118.985 249.448 118.537 249.527 118.108 249.686C117.679 249.835 117.31 250.045 117.002 250.316L116.554 249.574C116.927 249.257 117.375 249.014 117.898 248.846C118.421 248.669 118.971 248.58 119.55 248.58ZM119.2 255.286C119.76 255.286 120.241 255.16 120.642 254.908C121.043 254.647 121.342 254.273 121.538 253.788V252.584H119.228C117.968 252.584 117.338 253.023 117.338 253.9C117.338 254.329 117.501 254.67 117.828 254.922C118.155 255.165 118.612 255.286 119.2 255.286ZM134.348 252.192C135.347 252.425 135.846 253.027 135.846 253.998C135.846 254.642 135.608 255.137 135.132 255.482C134.656 255.827 133.947 256 133.004 256H129.658V248.636H132.906C133.746 248.636 134.404 248.799 134.88 249.126C135.356 249.453 135.594 249.919 135.594 250.526C135.594 250.927 135.482 251.273 135.258 251.562C135.044 251.842 134.74 252.052 134.348 252.192ZM130.624 251.912H132.836C133.406 251.912 133.84 251.805 134.138 251.59C134.446 251.375 134.6 251.063 134.6 250.652C134.6 250.241 134.446 249.933 134.138 249.728C133.84 249.523 133.406 249.42 132.836 249.42H130.624V251.912ZM132.962 255.216C133.597 255.216 134.073 255.113 134.39 254.908C134.708 254.703 134.866 254.381 134.866 253.942C134.866 253.503 134.722 253.181 134.432 252.976C134.143 252.761 133.686 252.654 133.06 252.654H130.624V255.216H132.962ZM142.656 248.636H143.65V254.488L148.564 248.636H149.446V256H148.452V250.148L143.552 256H142.656V248.636ZM160.568 248.58C161.259 248.58 161.884 248.739 162.444 249.056C163.004 249.364 163.443 249.803 163.76 250.372C164.078 250.941 164.236 251.59 164.236 252.318C164.236 253.055 164.078 253.709 163.76 254.278C163.443 254.847 163.004 255.291 162.444 255.608C161.894 255.916 161.268 256.07 160.568 256.07C159.971 256.07 159.43 255.949 158.944 255.706C158.468 255.454 158.076 255.09 157.768 254.614V258.716H156.774V248.636H157.726V250.092C158.025 249.607 158.417 249.233 158.902 248.972C159.397 248.711 159.952 248.58 160.568 248.58ZM160.498 255.188C161.012 255.188 161.478 255.071 161.898 254.838C162.318 254.595 162.645 254.255 162.878 253.816C163.121 253.377 163.242 252.878 163.242 252.318C163.242 251.758 163.121 251.263 162.878 250.834C162.645 250.395 162.318 250.055 161.898 249.812C161.478 249.569 161.012 249.448 160.498 249.448C159.976 249.448 159.504 249.569 159.084 249.812C158.674 250.055 158.347 250.395 158.104 250.834C157.871 251.263 157.754 251.758 157.754 252.318C157.754 252.878 157.871 253.377 158.104 253.816C158.347 254.255 158.674 254.595 159.084 254.838C159.504 255.071 159.976 255.188 160.498 255.188ZM183.518 256.084C182.548 256.084 181.67 255.869 180.886 255.44C180.112 255.011 179.5 254.418 179.052 253.662C178.614 252.897 178.394 252.043 178.394 251.1C178.394 250.157 178.614 249.308 179.052 248.552C179.5 247.787 180.116 247.189 180.9 246.76C181.684 246.331 182.562 246.116 183.532 246.116C184.26 246.116 184.932 246.237 185.548 246.48C186.164 246.723 186.687 247.077 187.116 247.544L186.458 248.202C185.693 247.427 184.727 247.04 183.56 247.04C182.786 247.04 182.081 247.217 181.446 247.572C180.812 247.927 180.312 248.412 179.948 249.028C179.594 249.644 179.416 250.335 179.416 251.1C179.416 251.865 179.594 252.556 179.948 253.172C180.312 253.788 180.812 254.273 181.446 254.628C182.081 254.983 182.786 255.16 183.56 255.16C184.736 255.16 185.702 254.768 186.458 253.984L187.116 254.642C186.687 255.109 186.16 255.468 185.534 255.72C184.918 255.963 184.246 256.084 183.518 256.084ZM199.756 248.636L196.074 256.882C195.775 257.573 195.43 258.063 195.038 258.352C194.646 258.641 194.174 258.786 193.624 258.786C193.269 258.786 192.938 258.73 192.63 258.618C192.322 258.506 192.056 258.338 191.832 258.114L192.294 257.372C192.667 257.745 193.115 257.932 193.638 257.932C193.974 257.932 194.258 257.839 194.492 257.652C194.734 257.465 194.958 257.148 195.164 256.7L195.486 255.986L192.196 248.636H193.232L196.004 254.894L198.776 248.636H199.756ZM212.392 248.636V256H211.398V249.518H206.778V256H205.784V248.636H212.392ZM226.306 248.636V256H225.312V249.518H220.692V256H219.698V248.636H226.306ZM233.681 256.07C233.476 256.07 233.299 255.995 233.149 255.846C233.009 255.697 232.939 255.515 232.939 255.3C232.939 255.085 233.009 254.908 233.149 254.768C233.299 254.619 233.476 254.544 233.681 254.544C233.887 254.544 234.064 254.619 234.213 254.768C234.363 254.908 234.437 255.085 234.437 255.3C234.437 255.515 234.363 255.697 234.213 255.846C234.064 255.995 233.887 256.07 233.681 256.07ZM259.376 246.2V256H258.368V247.096H256.058V246.2H259.376ZM270.105 256.084C269.349 256.084 268.672 255.883 268.075 255.482C267.487 255.081 267.025 254.507 266.689 253.76C266.362 253.004 266.199 252.117 266.199 251.1C266.199 250.083 266.362 249.201 266.689 248.454C267.025 247.698 267.487 247.119 268.075 246.718C268.672 246.317 269.349 246.116 270.105 246.116C270.861 246.116 271.533 246.317 272.121 246.718C272.718 247.119 273.185 247.698 273.521 248.454C273.857 249.201 274.025 250.083 274.025 251.1C274.025 252.117 273.857 253.004 273.521 253.76C273.185 254.507 272.718 255.081 272.121 255.482C271.533 255.883 270.861 256.084 270.105 256.084ZM270.105 255.16C270.674 255.16 271.174 255.001 271.603 254.684C272.042 254.367 272.382 253.905 272.625 253.298C272.868 252.691 272.989 251.959 272.989 251.1C272.989 250.241 272.868 249.509 272.625 248.902C272.382 248.295 272.042 247.833 271.603 247.516C271.174 247.199 270.674 247.04 270.105 247.04C269.536 247.04 269.032 247.199 268.593 247.516C268.164 247.833 267.828 248.295 267.585 248.902C267.342 249.509 267.221 250.241 267.221 251.1C267.221 251.959 267.342 252.691 267.585 253.298C267.828 253.905 268.164 254.367 268.593 254.684C269.032 255.001 269.536 255.16 270.105 255.16ZM283.855 256.084C283.099 256.084 282.422 255.883 281.825 255.482C281.237 255.081 280.775 254.507 280.439 253.76C280.112 253.004 279.949 252.117 279.949 251.1C279.949 250.083 280.112 249.201 280.439 248.454C280.775 247.698 281.237 247.119 281.825 246.718C282.422 246.317 283.099 246.116 283.855 246.116C284.611 246.116 285.283 246.317 285.871 246.718C286.468 247.119 286.935 247.698 287.271 248.454C287.607 249.201 287.775 250.083 287.775 251.1C287.775 252.117 287.607 253.004 287.271 253.76C286.935 254.507 286.468 255.081 285.871 255.482C285.283 255.883 284.611 256.084 283.855 256.084ZM283.855 255.16C284.424 255.16 284.923 255.001 285.353 254.684C285.791 254.367 286.132 253.905 286.375 253.298C286.617 252.691 286.739 251.959 286.739 251.1C286.739 250.241 286.617 249.509 286.375 248.902C286.132 248.295 285.791 247.833 285.353 247.516C284.923 247.199 284.424 247.04 283.855 247.04C283.285 247.04 282.781 247.199 282.343 247.516C281.913 247.833 281.577 248.295 281.335 248.902C281.092 249.509 280.971 250.241 280.971 251.1C280.971 251.959 281.092 252.691 281.335 253.298C281.577 253.905 281.913 254.367 282.343 254.684C282.781 255.001 283.285 255.16 283.855 255.16ZM302.616 248.636V256H301.706V250.176L298.724 255.104H298.276L295.294 250.162V256H294.384V248.636H295.392L298.514 253.942L301.692 248.636H302.616ZM312.599 252.724H310.919V256H309.925V248.636H310.919V251.87H312.613L315.203 248.636H316.281L313.383 252.206L316.491 256H315.315L312.599 252.724ZM327.747 249.518H323.533V256H322.539V248.636H327.747V249.518ZM348.038 246.2V246.914L343.936 256H342.844L346.876 247.096H341.836V248.93H340.842V246.2H348.038ZM364.327 248.636V256H354.163V248.636H355.157V255.132H358.769V248.636H359.763V255.132H363.333V248.636H364.327ZM376.825 249.518H374.039V256H373.045V249.518H370.259V248.636H376.825V249.518Z" fill="black"/>
<defs>
<filter id="filter0_d_277_29" x="0" y="0" width="445" height="337" filterUnits="userSpaceOnUse" color-interpolation-filters="sRGB">
<feFlood flood-opacity="0" result="BackgroundImageFix"/>
<feColorMatrix in="SourceAlpha" type="matrix" values="0 0 0 0 0 0 0 0 0 0 0 0 0 0 0 0 0 0 127 0" result="hardAlpha"/>
<feOffset dy="12"/>
<feGaussianBlur stdDeviation="15"/>
<feComposite in2="hardAlpha" operator="out"/>
<feColorMatrix type="matrix" values="0 0 0 0 0 0 0 0 0 0 0 0 0 0 0 0 0 0 0.15 0"/>
<feBlend mode="normal" in2="BackgroundImageFix" result="effect1_dropShadow_277_29"/>
<feBlend mode="normal" in="SourceGraphic" in2="effect1_dropShadow_277_29" result="shape"/>
</filter>
<radialGradient id="paint0_radial_277_29" cx="0" cy="0" r="1" gradientUnits="userSpaceOnUse" gradientTransform="translate(30 18) rotate(35.7343) scale(474.293 659.216)">
<stop offset="0.213542" stop-color="#E3E8FF"/>
<stop offset="1" stop-color="white"/>
</radialGradient>
<radialGradient id="paint1_radial_277_29" cx="0" cy="0" r="1" gradientUnits="userSpaceOnUse" gradientTransform="translate(357 51) rotate(90) scale(10 17)">
<stop stop-color="#6424FD"/>
<stop offset="0.776042" stop-color="#8B5BFF"/>
</radialGradient>
</defs>
</svg>
