<svg width="473" height="153" viewBox="0 0 473 153" fill="none" xmlns="http://www.w3.org/2000/svg">
<g filter="url(#filter0_d_116_382)">
<rect x="30" y="18" width="413" height="93" rx="20" fill="url(#paint0_radial_116_382)" shape-rendering="crispEdges"/>
<path d="M58.1928 39.8V58H53.9808V43.18H50.3408V39.8H58.1928ZM72.1444 46.638C74.7098 46.638 76.5991 47.1493 77.8124 48.172C79.0431 49.1947 79.6584 50.564 79.6584 52.28C79.6584 53.3893 79.3811 54.4033 78.8264 55.322C78.2718 56.2233 77.4224 56.9513 76.2784 57.506C75.1518 58.0433 73.7564 58.312 72.0924 58.312C70.8098 58.312 69.5444 58.1473 68.2964 57.818C67.0658 57.4713 66.0171 56.986 65.1504 56.362L66.8144 53.138C67.5078 53.658 68.3051 54.0653 69.2064 54.36C70.1078 54.6373 71.0351 54.776 71.9884 54.776C73.0458 54.776 73.8778 54.568 74.4844 54.152C75.0911 53.736 75.3944 53.1553 75.3944 52.41C75.3944 51.63 75.0738 51.0407 74.4324 50.642C73.8084 50.2433 72.7164 50.044 71.1564 50.044H66.5024L67.4384 39.8H78.5404V43.18H70.9484L70.6624 46.638H72.1444ZM88.3093 48.874C87.5987 48.874 87.0007 48.6313 86.5153 48.146C86.03 47.6607 85.7873 47.054 85.7873 46.326C85.7873 45.5807 86.03 44.9827 86.5153 44.532C87.0007 44.064 87.5987 43.83 88.3093 43.83C89.02 43.83 89.618 44.064 90.1033 44.532C90.5887 44.9827 90.8313 45.5807 90.8313 46.326C90.8313 47.054 90.5887 47.6607 90.1033 48.146C89.618 48.6313 89.02 48.874 88.3093 48.874ZM88.3093 58.208C87.5987 58.208 87.0007 57.9653 86.5153 57.48C86.03 56.9947 85.7873 56.388 85.7873 55.66C85.7873 54.9147 86.03 54.3167 86.5153 53.866C87.0007 53.398 87.5987 53.164 88.3093 53.164C89.02 53.164 89.618 53.398 90.1033 53.866C90.5887 54.3167 90.8313 54.9147 90.8313 55.66C90.8313 56.388 90.5887 56.9947 90.1033 57.48C89.618 57.9653 89.02 58.208 88.3093 58.208ZM105.774 47.21C107.369 47.47 108.591 48.068 109.44 49.004C110.289 49.9227 110.714 51.0667 110.714 52.436C110.714 53.4933 110.437 54.4727 109.882 55.374C109.327 56.258 108.478 56.9687 107.334 57.506C106.207 58.0433 104.821 58.312 103.174 58.312C101.891 58.312 100.626 58.1473 99.378 57.818C98.1473 57.4713 97.0987 56.986 96.232 56.362L97.87 53.138C98.5633 53.658 99.3607 54.0653 100.262 54.36C101.181 54.6373 102.117 54.776 103.07 54.776C104.127 54.776 104.959 54.5767 105.566 54.178C106.173 53.762 106.476 53.1813 106.476 52.436C106.476 50.9453 105.341 50.2 103.07 50.2H101.146V47.418L104.89 43.18H97.142V39.8H109.882V42.53L105.774 47.21ZM125.009 58.312C123.501 58.312 122.157 57.9393 120.979 57.194C119.8 56.4487 118.873 55.374 118.197 53.97C117.538 52.5487 117.209 50.8587 117.209 48.9C117.209 46.9413 117.538 45.26 118.197 43.856C118.873 42.4347 119.8 41.3513 120.979 40.606C122.157 39.8607 123.501 39.488 125.009 39.488C126.517 39.488 127.86 39.8607 129.039 40.606C130.217 41.3513 131.136 42.4347 131.795 43.856C132.471 45.26 132.809 46.9413 132.809 48.9C132.809 50.8587 132.471 52.5487 131.795 53.97C131.136 55.374 130.217 56.4487 129.039 57.194C127.86 57.9393 126.517 58.312 125.009 58.312ZM125.009 54.75C126.118 54.75 126.985 54.2733 127.609 53.32C128.25 52.3667 128.571 50.8933 128.571 48.9C128.571 46.9067 128.25 45.4333 127.609 44.48C126.985 43.5267 126.118 43.05 125.009 43.05C123.917 43.05 123.05 43.5267 122.409 44.48C121.785 45.4333 121.473 46.9067 121.473 48.9C121.473 50.8933 121.785 52.3667 122.409 53.32C123.05 54.2733 123.917 54.75 125.009 54.75Z" fill="black"/>
<path d="M46.7183 79.12C45.3316 79.12 44.0783 78.8133 42.9583 78.2C41.8516 77.5867 40.9783 76.74 40.3383 75.66C39.7116 74.5667 39.3983 73.3467 39.3983 72C39.3983 70.6533 39.7116 69.44 40.3383 68.36C40.9783 67.2667 41.8583 66.4133 42.9783 65.8C44.0983 65.1867 45.3516 64.88 46.7383 64.88C47.7783 64.88 48.7383 65.0533 49.6183 65.4C50.4983 65.7467 51.2449 66.2533 51.8583 66.92L50.9183 67.86C49.8249 66.7533 48.4449 66.2 46.7783 66.2C45.6716 66.2 44.6649 66.4533 43.7583 66.96C42.8516 67.4667 42.1383 68.16 41.6183 69.04C41.1116 69.92 40.8583 70.9067 40.8583 72C40.8583 73.0933 41.1116 74.08 41.6183 74.96C42.1383 75.84 42.8516 76.5333 43.7583 77.04C44.6649 77.5467 45.6716 77.8 46.7783 77.8C48.4583 77.8 49.8383 77.24 50.9183 76.12L51.8583 77.06C51.2449 77.7267 50.4916 78.24 49.5983 78.6C48.7183 78.9467 47.7583 79.12 46.7183 79.12ZM66.8059 74.18H58.0059C58.0859 75.2733 58.5059 76.16 59.2659 76.84C60.0259 77.5067 60.9859 77.84 62.1459 77.84C62.7993 77.84 63.3993 77.7267 63.9459 77.5C64.4926 77.26 64.9659 76.9133 65.3659 76.46L66.1659 77.38C65.6993 77.94 65.1126 78.3667 64.4059 78.66C63.7126 78.9533 62.9459 79.1 62.1059 79.1C61.0259 79.1 60.0659 78.8733 59.2259 78.42C58.3993 77.9533 57.7526 77.3133 57.2859 76.5C56.8193 75.6867 56.5859 74.7667 56.5859 73.74C56.5859 72.7133 56.8059 71.7933 57.2459 70.98C57.6993 70.1667 58.3126 69.5333 59.0859 69.08C59.8726 68.6267 60.7526 68.4 61.7259 68.4C62.6993 68.4 63.5726 68.6267 64.3459 69.08C65.1193 69.5333 65.7259 70.1667 66.1659 70.98C66.6059 71.78 66.8259 72.7 66.8259 73.74L66.8059 74.18ZM61.7259 69.62C60.7126 69.62 59.8593 69.9467 59.1659 70.6C58.4859 71.24 58.0993 72.08 58.0059 73.12H65.4659C65.3726 72.08 64.9793 71.24 64.2859 70.6C63.6059 69.9467 62.7526 69.62 61.7259 69.62ZM80.9092 69.74H74.8892V79H73.4692V68.48H80.9092V69.74ZM90.3131 79.1C89.2998 79.1 88.3865 78.8733 87.5731 78.42C86.7598 77.9533 86.1198 77.3133 85.6531 76.5C85.1865 75.6867 84.9531 74.7667 84.9531 73.74C84.9531 72.7133 85.1865 71.7933 85.6531 70.98C86.1198 70.1667 86.7598 69.5333 87.5731 69.08C88.3865 68.6267 89.2998 68.4 90.3131 68.4C91.3265 68.4 92.2398 68.6267 93.0531 69.08C93.8665 69.5333 94.4998 70.1667 94.9531 70.98C95.4198 71.7933 95.6531 72.7133 95.6531 73.74C95.6531 74.7667 95.4198 75.6867 94.9531 76.5C94.4998 77.3133 93.8665 77.9533 93.0531 78.42C92.2398 78.8733 91.3265 79.1 90.3131 79.1ZM90.3131 77.84C91.0598 77.84 91.7265 77.6733 92.3131 77.34C92.9131 76.9933 93.3798 76.5067 93.7131 75.88C94.0465 75.2533 94.2131 74.54 94.2131 73.74C94.2131 72.94 94.0465 72.2267 93.7131 71.6C93.3798 70.9733 92.9131 70.4933 92.3131 70.16C91.7265 69.8133 91.0598 69.64 90.3131 69.64C89.5665 69.64 88.8931 69.8133 88.2931 70.16C87.7065 70.4933 87.2398 70.9733 86.8931 71.6C86.5598 72.2267 86.3931 72.94 86.3931 73.74C86.3931 74.54 86.5598 75.2533 86.8931 75.88C87.2398 76.5067 87.7065 76.9933 88.2931 77.34C88.8931 77.6733 89.5665 77.84 90.3131 77.84ZM112.389 77.76V81.54H111.049V79H101.629V81.54H100.289V77.76H100.889C101.596 77.72 102.076 77.2 102.329 76.2C102.583 75.2 102.756 73.8 102.849 72L102.989 68.48H110.749V77.76H112.389ZM104.149 72.08C104.083 73.5733 103.956 74.8067 103.769 75.78C103.583 76.74 103.249 77.4 102.769 77.76H109.329V69.74H104.269L104.149 72.08ZM118.657 68.48H120.077V73.14H126.697V68.48H128.117V79H126.697V74.36H120.077V79H118.657V68.48ZM143.733 68.48V79H142.433V75.52H139.133H138.733L136.293 79H134.753L137.373 75.32C136.559 75.0933 135.933 74.7067 135.493 74.16C135.053 73.6133 134.833 72.92 134.833 72.08C134.833 70.9067 135.233 70.0133 136.033 69.4C136.833 68.7867 137.926 68.48 139.313 68.48H143.733ZM136.273 72.12C136.273 73.68 137.266 74.46 139.253 74.46H142.433V69.74H139.353C137.299 69.74 136.273 70.5333 136.273 72.12Z" fill="black"/>
<line x1="158.5" y1="18" x2="158.5" y2="111" stroke="#AF8DFF"/>
<path d="M187.522 53.954C187.15 53.954 186.832 53.822 186.568 53.558C186.304 53.294 186.172 52.964 186.172 52.568C186.172 52.184 186.304 51.866 186.568 51.614C186.832 51.35 187.15 51.218 187.522 51.218C187.894 51.218 188.212 51.35 188.476 51.614C188.74 51.866 188.872 52.184 188.872 52.568C188.872 52.952 188.74 53.282 188.476 53.558C188.212 53.822 187.894 53.954 187.522 53.954ZM210.552 56.348V57.5H201.714V56.582L206.952 51.452C207.612 50.804 208.056 50.246 208.284 49.778C208.524 49.298 208.644 48.818 208.644 48.338C208.644 47.594 208.386 47.018 207.87 46.61C207.366 46.19 206.64 45.98 205.692 45.98C204.216 45.98 203.07 46.448 202.254 47.384L201.336 46.592C201.828 46.016 202.452 45.572 203.208 45.26C203.976 44.948 204.84 44.792 205.8 44.792C207.084 44.792 208.098 45.098 208.842 45.71C209.598 46.31 209.976 47.138 209.976 48.194C209.976 48.842 209.832 49.466 209.544 50.066C209.256 50.666 208.71 51.356 207.906 52.136L203.622 56.348H210.552ZM232.621 46.052H228.193V57.5H226.879V46.052H222.451V44.9H232.621V46.052ZM240.534 47.96C241.77 47.96 242.718 48.272 243.378 48.896C244.038 49.508 244.368 50.42 244.368 51.632V57.5H243.144V56.024C242.856 56.516 242.43 56.9 241.866 57.176C241.314 57.452 240.654 57.59 239.886 57.59C238.83 57.59 237.99 57.338 237.366 56.834C236.742 56.33 236.43 55.664 236.43 54.836C236.43 54.032 236.718 53.384 237.294 52.892C237.882 52.4 238.812 52.154 240.084 52.154H243.09V51.578C243.09 50.762 242.862 50.144 242.406 49.724C241.95 49.292 241.284 49.076 240.408 49.076C239.808 49.076 239.232 49.178 238.68 49.382C238.128 49.574 237.654 49.844 237.258 50.192L236.682 49.238C237.162 48.83 237.738 48.518 238.41 48.302C239.082 48.074 239.79 47.96 240.534 47.96ZM240.084 56.582C240.804 56.582 241.422 56.42 241.938 56.096C242.454 55.76 242.838 55.28 243.09 54.656V53.108H240.12C238.5 53.108 237.69 53.672 237.69 54.8C237.69 55.352 237.9 55.79 238.32 56.114C238.74 56.426 239.328 56.582 240.084 56.582ZM255.51 48.266C256.386 48.266 257.166 48.464 257.85 48.86C258.546 49.244 259.086 49.79 259.47 50.498C259.854 51.194 260.046 51.992 260.046 52.892C260.046 53.816 259.842 54.638 259.434 55.358C259.038 56.066 258.48 56.618 257.76 57.014C257.04 57.41 256.212 57.608 255.276 57.608C253.704 57.608 252.486 57.056 251.622 55.952C250.758 54.848 250.326 53.324 250.326 51.38C250.326 49.352 250.71 47.798 251.478 46.718C252.258 45.638 253.47 44.906 255.114 44.522L259.362 43.55L259.578 44.72L255.582 45.638C254.226 45.938 253.23 46.472 252.594 47.24C251.958 47.996 251.61 49.118 251.55 50.606C251.934 49.874 252.468 49.304 253.152 48.896C253.836 48.476 254.622 48.266 255.51 48.266ZM255.312 56.546C255.972 56.546 256.56 56.396 257.076 56.096C257.604 55.784 258.012 55.352 258.3 54.8C258.6 54.248 258.75 53.624 258.75 52.928C258.75 52.232 258.606 51.62 258.318 51.092C258.03 50.564 257.622 50.156 257.094 49.868C256.578 49.568 255.984 49.418 255.312 49.418C254.64 49.418 254.04 49.568 253.512 49.868C252.996 50.156 252.588 50.564 252.288 51.092C252 51.62 251.856 52.232 251.856 52.928C251.856 53.624 252 54.248 252.288 54.8C252.588 55.352 253.002 55.784 253.53 56.096C254.058 56.396 254.652 56.546 255.312 56.546ZM273.623 48.032V57.5H272.345V49.166H267.809L267.683 51.506C267.587 53.474 267.359 54.986 266.999 56.042C266.639 57.098 265.997 57.626 265.073 57.626C264.821 57.626 264.515 57.578 264.155 57.482L264.245 56.384C264.461 56.432 264.611 56.456 264.695 56.456C265.187 56.456 265.559 56.228 265.811 55.772C266.063 55.316 266.231 54.752 266.315 54.08C266.399 53.408 266.471 52.52 266.531 51.416L266.693 48.032H273.623ZM280.496 57.59C280.232 57.59 280.004 57.494 279.812 57.302C279.632 57.11 279.542 56.876 279.542 56.6C279.542 56.324 279.632 56.096 279.812 55.916C280.004 55.724 280.232 55.628 280.496 55.628C280.76 55.628 280.988 55.724 281.18 55.916C281.372 56.096 281.468 56.324 281.468 56.6C281.468 56.876 281.372 57.11 281.18 57.302C280.988 57.494 280.76 57.59 280.496 57.59ZM300.937 57.68C299.665 57.68 298.513 57.404 297.481 56.852C296.461 56.288 295.657 55.514 295.069 54.53C294.493 53.546 294.205 52.436 294.205 51.2C294.205 49.964 294.499 48.854 295.087 47.87C295.675 46.886 296.479 46.118 297.499 45.566C298.531 45.002 299.683 44.72 300.955 44.72C301.987 44.72 302.929 44.9 303.781 45.26C304.633 45.62 305.353 46.142 305.941 46.826L304.429 48.248C303.517 47.264 302.395 46.772 301.063 46.772C300.199 46.772 299.425 46.964 298.741 47.348C298.057 47.72 297.523 48.242 297.139 48.914C296.755 49.586 296.563 50.348 296.563 51.2C296.563 52.052 296.755 52.814 297.139 53.486C297.523 54.158 298.057 54.686 298.741 55.07C299.425 55.442 300.199 55.628 301.063 55.628C302.395 55.628 303.517 55.13 304.429 54.134L305.941 55.574C305.353 56.258 304.627 56.78 303.763 57.14C302.911 57.5 301.969 57.68 300.937 57.68ZM314.701 47.78C316.117 47.78 317.197 48.122 317.941 48.806C318.697 49.478 319.075 50.498 319.075 51.866V57.5H316.951V56.33C316.675 56.75 316.279 57.074 315.763 57.302C315.259 57.518 314.647 57.626 313.927 57.626C313.207 57.626 312.577 57.506 312.037 57.266C311.497 57.014 311.077 56.672 310.777 56.24C310.489 55.796 310.345 55.298 310.345 54.746C310.345 53.882 310.663 53.192 311.299 52.676C311.947 52.148 312.961 51.884 314.341 51.884H316.825V51.74C316.825 51.068 316.621 50.552 316.213 50.192C315.817 49.832 315.223 49.652 314.431 49.652C313.891 49.652 313.357 49.736 312.829 49.904C312.313 50.072 311.875 50.306 311.515 50.606L310.633 48.968C311.137 48.584 311.743 48.29 312.451 48.086C313.159 47.882 313.909 47.78 314.701 47.78ZM314.395 55.988C314.959 55.988 315.457 55.862 315.889 55.61C316.333 55.346 316.645 54.974 316.825 54.494V53.378H314.503C313.207 53.378 312.559 53.804 312.559 54.656C312.559 55.064 312.721 55.388 313.045 55.628C313.369 55.868 313.819 55.988 314.395 55.988ZM325.113 44.144H327.363V57.5H325.113V44.144ZM337.876 57.626C336.88 57.626 335.986 57.416 335.194 56.996C334.402 56.576 333.784 55.994 333.34 55.25C332.896 54.494 332.674 53.642 332.674 52.694C332.674 51.746 332.896 50.9 333.34 50.156C333.784 49.412 334.396 48.83 335.176 48.41C335.968 47.99 336.868 47.78 337.876 47.78C338.824 47.78 339.652 47.972 340.36 48.356C341.08 48.74 341.62 49.292 341.98 50.012L340.252 51.02C339.976 50.576 339.628 50.246 339.208 50.03C338.8 49.802 338.35 49.688 337.858 49.688C337.018 49.688 336.322 49.964 335.77 50.516C335.218 51.056 334.942 51.782 334.942 52.694C334.942 53.606 335.212 54.338 335.752 54.89C336.304 55.43 337.006 55.7 337.858 55.7C338.35 55.7 338.8 55.592 339.208 55.376C339.628 55.148 339.976 54.812 340.252 54.368L341.98 55.376C341.608 56.096 341.062 56.654 340.342 57.05C339.634 57.434 338.812 57.626 337.876 57.626ZM347.075 47.888H349.325V57.5H347.075V47.888ZM348.209 46.304C347.801 46.304 347.459 46.178 347.183 45.926C346.907 45.662 346.769 45.338 346.769 44.954C346.769 44.57 346.907 44.252 347.183 44C347.459 43.736 347.801 43.604 348.209 43.604C348.617 43.604 348.959 43.73 349.235 43.982C349.511 44.222 349.649 44.528 349.649 44.9C349.649 45.296 349.511 45.632 349.235 45.908C348.971 46.172 348.629 46.304 348.209 46.304ZM361.476 57.68C360.204 57.68 359.052 57.404 358.02 56.852C357 56.288 356.196 55.514 355.608 54.53C355.032 53.546 354.744 52.436 354.744 51.2C354.744 49.964 355.038 48.854 355.626 47.87C356.214 46.886 357.018 46.118 358.038 45.566C359.07 45.002 360.222 44.72 361.494 44.72C362.526 44.72 363.468 44.9 364.32 45.26C365.172 45.62 365.892 46.142 366.48 46.826L364.968 48.248C364.056 47.264 362.934 46.772 361.602 46.772C360.738 46.772 359.964 46.964 359.28 47.348C358.596 47.72 358.062 48.242 357.678 48.914C357.294 49.586 357.102 50.348 357.102 51.2C357.102 52.052 357.294 52.814 357.678 53.486C358.062 54.158 358.596 54.686 359.28 55.07C359.964 55.442 360.738 55.628 361.602 55.628C362.934 55.628 364.056 55.13 364.968 54.134L366.48 55.574C365.892 56.258 365.166 56.78 364.302 57.14C363.45 57.5 362.508 57.68 361.476 57.68ZM375.24 47.78C376.656 47.78 377.736 48.122 378.48 48.806C379.236 49.478 379.614 50.498 379.614 51.866V57.5H377.49V56.33C377.214 56.75 376.818 57.074 376.302 57.302C375.798 57.518 375.186 57.626 374.466 57.626C373.746 57.626 373.116 57.506 372.576 57.266C372.036 57.014 371.616 56.672 371.316 56.24C371.028 55.796 370.884 55.298 370.884 54.746C370.884 53.882 371.202 53.192 371.838 52.676C372.486 52.148 373.5 51.884 374.88 51.884H377.364V51.74C377.364 51.068 377.16 50.552 376.752 50.192C376.356 49.832 375.762 49.652 374.97 49.652C374.43 49.652 373.896 49.736 373.368 49.904C372.852 50.072 372.414 50.306 372.054 50.606L371.172 48.968C371.676 48.584 372.282 48.29 372.99 48.086C373.698 47.882 374.448 47.78 375.24 47.78ZM374.934 55.988C375.498 55.988 375.996 55.862 376.428 55.61C376.872 55.346 377.184 54.974 377.364 54.494V53.378H375.042C373.746 53.378 373.098 53.804 373.098 54.656C373.098 55.064 373.26 55.388 373.584 55.628C373.908 55.868 374.358 55.988 374.934 55.988ZM385.652 44.144H387.902V57.5H385.652V44.144ZM398.415 57.626C397.419 57.626 396.525 57.416 395.733 56.996C394.941 56.576 394.323 55.994 393.879 55.25C393.435 54.494 393.213 53.642 393.213 52.694C393.213 51.746 393.435 50.9 393.879 50.156C394.323 49.412 394.935 48.83 395.715 48.41C396.507 47.99 397.407 47.78 398.415 47.78C399.363 47.78 400.191 47.972 400.899 48.356C401.619 48.74 402.159 49.292 402.519 50.012L400.791 51.02C400.515 50.576 400.167 50.246 399.747 50.03C399.339 49.802 398.889 49.688 398.397 49.688C397.557 49.688 396.861 49.964 396.309 50.516C395.757 51.056 395.481 51.782 395.481 52.694C395.481 53.606 395.751 54.338 396.291 54.89C396.843 55.43 397.545 55.7 398.397 55.7C398.889 55.7 399.339 55.592 399.747 55.376C400.167 55.148 400.515 54.812 400.791 54.368L402.519 55.376C402.147 56.096 401.601 56.654 400.881 57.05C400.173 57.434 399.351 57.626 398.415 57.626Z" fill="black"/>
<path d="M187.865 78.954C187.493 78.954 187.175 78.822 186.911 78.558C186.647 78.294 186.515 77.964 186.515 77.568C186.515 77.184 186.647 76.866 186.911 76.614C187.175 76.35 187.493 76.218 187.865 76.218C188.237 76.218 188.555 76.35 188.819 76.614C189.083 76.866 189.215 77.184 189.215 77.568C189.215 77.952 189.083 78.282 188.819 78.558C188.555 78.822 188.237 78.954 187.865 78.954ZM205.784 69.9V82.5H204.488V71.052H201.518V69.9H205.784ZM229.239 71.052H224.811V82.5H223.497V71.052H219.069V69.9H229.239V71.052ZM237.151 72.96C238.387 72.96 239.335 73.272 239.995 73.896C240.655 74.508 240.985 75.42 240.985 76.632V82.5H239.761V81.024C239.473 81.516 239.047 81.9 238.483 82.176C237.931 82.452 237.271 82.59 236.503 82.59C235.447 82.59 234.607 82.338 233.983 81.834C233.359 81.33 233.047 80.664 233.047 79.836C233.047 79.032 233.335 78.384 233.911 77.892C234.499 77.4 235.429 77.154 236.701 77.154H239.707V76.578C239.707 75.762 239.479 75.144 239.023 74.724C238.567 74.292 237.901 74.076 237.025 74.076C236.425 74.076 235.849 74.178 235.297 74.382C234.745 74.574 234.271 74.844 233.875 75.192L233.299 74.238C233.779 73.83 234.355 73.518 235.027 73.302C235.699 73.074 236.407 72.96 237.151 72.96ZM236.701 81.582C237.421 81.582 238.039 81.42 238.555 81.096C239.071 80.76 239.455 80.28 239.707 79.656V78.108H236.737C235.117 78.108 234.307 78.672 234.307 79.8C234.307 80.352 234.517 80.79 234.937 81.114C235.357 81.426 235.945 81.582 236.701 81.582ZM252.127 73.266C253.003 73.266 253.783 73.464 254.467 73.86C255.163 74.244 255.703 74.79 256.087 75.498C256.471 76.194 256.663 76.992 256.663 77.892C256.663 78.816 256.459 79.638 256.051 80.358C255.655 81.066 255.097 81.618 254.377 82.014C253.657 82.41 252.829 82.608 251.893 82.608C250.321 82.608 249.103 82.056 248.239 80.952C247.375 79.848 246.943 78.324 246.943 76.38C246.943 74.352 247.327 72.798 248.095 71.718C248.875 70.638 250.087 69.906 251.731 69.522L255.979 68.55L256.195 69.72L252.199 70.638C250.843 70.938 249.847 71.472 249.211 72.24C248.575 72.996 248.227 74.118 248.167 75.606C248.551 74.874 249.085 74.304 249.769 73.896C250.453 73.476 251.239 73.266 252.127 73.266ZM251.929 81.546C252.589 81.546 253.177 81.396 253.693 81.096C254.221 80.784 254.629 80.352 254.917 79.8C255.217 79.248 255.367 78.624 255.367 77.928C255.367 77.232 255.223 76.62 254.935 76.092C254.647 75.564 254.239 75.156 253.711 74.868C253.195 74.568 252.601 74.418 251.929 74.418C251.257 74.418 250.657 74.568 250.129 74.868C249.613 75.156 249.205 75.564 248.905 76.092C248.617 76.62 248.473 77.232 248.473 77.928C248.473 78.624 248.617 79.248 248.905 79.8C249.205 80.352 249.619 80.784 250.147 81.096C250.675 81.396 251.269 81.546 251.929 81.546ZM270.24 73.032V82.5H268.962V74.166H264.426L264.3 76.506C264.204 78.474 263.976 79.986 263.616 81.042C263.256 82.098 262.614 82.626 261.69 82.626C261.438 82.626 261.132 82.578 260.772 82.482L260.862 81.384C261.078 81.432 261.228 81.456 261.312 81.456C261.804 81.456 262.176 81.228 262.428 80.772C262.68 80.316 262.848 79.752 262.932 79.08C263.016 78.408 263.088 77.52 263.148 76.416L263.31 73.032H270.24ZM277.113 82.59C276.849 82.59 276.621 82.494 276.429 82.302C276.249 82.11 276.159 81.876 276.159 81.6C276.159 81.324 276.249 81.096 276.429 80.916C276.621 80.724 276.849 80.628 277.113 80.628C277.377 80.628 277.605 80.724 277.797 80.916C277.989 81.096 278.085 81.324 278.085 81.6C278.085 81.876 277.989 82.11 277.797 82.302C277.605 82.494 277.377 82.59 277.113 82.59ZM297.608 82.68C296.324 82.68 295.166 82.404 294.134 81.852C293.102 81.288 292.292 80.514 291.704 79.53C291.116 78.534 290.822 77.424 290.822 76.2C290.822 74.976 291.116 73.872 291.704 72.888C292.292 71.892 293.102 71.118 294.134 70.566C295.166 70.002 296.324 69.72 297.608 69.72C298.892 69.72 300.05 70.002 301.082 70.566C302.114 71.118 302.924 71.886 303.512 72.87C304.1 73.854 304.394 74.964 304.394 76.2C304.394 77.436 304.1 78.546 303.512 79.53C302.924 80.514 302.114 81.288 301.082 81.852C300.05 82.404 298.892 82.68 297.608 82.68ZM297.608 80.628C298.448 80.628 299.204 80.442 299.876 80.07C300.548 79.686 301.076 79.158 301.46 78.486C301.844 77.802 302.036 77.04 302.036 76.2C302.036 75.36 301.844 74.604 301.46 73.932C301.076 73.248 300.548 72.72 299.876 72.348C299.204 71.964 298.448 71.772 297.608 71.772C296.768 71.772 296.012 71.964 295.34 72.348C294.668 72.72 294.14 73.248 293.756 73.932C293.372 74.604 293.18 75.36 293.18 76.2C293.18 77.04 293.372 77.802 293.756 78.486C294.14 79.158 294.668 79.686 295.34 80.07C296.012 80.442 296.768 80.628 297.608 80.628ZM321.941 72.78C323.153 72.78 324.113 73.134 324.821 73.842C325.529 74.538 325.883 75.588 325.883 76.992V82.5H323.633V77.28C323.633 76.44 323.447 75.81 323.075 75.39C322.703 74.958 322.169 74.742 321.473 74.742C320.717 74.742 320.111 74.994 319.655 75.498C319.199 75.99 318.971 76.698 318.971 77.622V82.5H316.721V77.28C316.721 76.44 316.535 75.81 316.163 75.39C315.791 74.958 315.257 74.742 314.561 74.742C313.793 74.742 313.181 74.988 312.725 75.48C312.281 75.972 312.059 76.686 312.059 77.622V82.5H309.809V72.888H311.951V74.112C312.311 73.68 312.761 73.35 313.301 73.122C313.841 72.894 314.441 72.78 315.101 72.78C315.821 72.78 316.457 72.918 317.009 73.194C317.573 73.458 318.017 73.854 318.341 74.382C318.737 73.878 319.247 73.488 319.871 73.212C320.495 72.924 321.185 72.78 321.941 72.78ZM341.032 77.748C341.032 77.904 341.02 78.126 340.996 78.414H333.454C333.586 79.122 333.928 79.686 334.48 80.106C335.044 80.514 335.74 80.718 336.568 80.718C337.624 80.718 338.494 80.37 339.178 79.674L340.384 81.06C339.952 81.576 339.406 81.966 338.746 82.23C338.086 82.494 337.342 82.626 336.514 82.626C335.458 82.626 334.528 82.416 333.724 81.996C332.92 81.576 332.296 80.994 331.852 80.25C331.42 79.494 331.204 78.642 331.204 77.694C331.204 76.758 331.414 75.918 331.834 75.174C332.266 74.418 332.86 73.83 333.616 73.41C334.372 72.99 335.224 72.78 336.172 72.78C337.108 72.78 337.942 72.99 338.674 73.41C339.418 73.818 339.994 74.4 340.402 75.156C340.822 75.9 341.032 76.764 341.032 77.748ZM336.172 74.58C335.452 74.58 334.84 74.796 334.336 75.228C333.844 75.648 333.544 76.212 333.436 76.92H338.89C338.794 76.224 338.5 75.66 338.008 75.228C337.516 74.796 336.904 74.58 336.172 74.58ZM355.883 72.888V81.042C355.883 84.426 354.155 86.118 350.699 86.118C349.775 86.118 348.899 85.998 348.071 85.758C347.243 85.53 346.559 85.194 346.019 84.75L347.027 83.058C347.447 83.406 347.975 83.682 348.611 83.886C349.259 84.102 349.913 84.21 350.573 84.21C351.629 84.21 352.403 83.97 352.895 83.49C353.387 83.01 353.633 82.278 353.633 81.294V80.79C353.249 81.21 352.781 81.528 352.229 81.744C351.677 81.96 351.071 82.068 350.411 82.068C349.499 82.068 348.671 81.876 347.927 81.492C347.195 81.096 346.613 80.544 346.181 79.836C345.761 79.128 345.551 78.318 345.551 77.406C345.551 76.494 345.761 75.69 346.181 74.994C346.613 74.286 347.195 73.74 347.927 73.356C348.671 72.972 349.499 72.78 350.411 72.78C351.107 72.78 351.737 72.894 352.301 73.122C352.877 73.35 353.357 73.698 353.741 74.166V72.888H355.883ZM350.753 80.16C351.605 80.16 352.301 79.908 352.841 79.404C353.393 78.888 353.669 78.222 353.669 77.406C353.669 76.602 353.393 75.948 352.841 75.444C352.301 74.94 351.605 74.688 350.753 74.688C349.889 74.688 349.181 74.94 348.629 75.444C348.089 75.948 347.819 76.602 347.819 77.406C347.819 78.222 348.089 78.888 348.629 79.404C349.181 79.908 349.889 80.16 350.753 80.16ZM365.663 72.78C367.079 72.78 368.159 73.122 368.903 73.806C369.659 74.478 370.037 75.498 370.037 76.866V82.5H367.913V81.33C367.637 81.75 367.241 82.074 366.725 82.302C366.221 82.518 365.609 82.626 364.889 82.626C364.169 82.626 363.539 82.506 362.999 82.266C362.459 82.014 362.039 81.672 361.739 81.24C361.451 80.796 361.307 80.298 361.307 79.746C361.307 78.882 361.625 78.192 362.261 77.676C362.909 77.148 363.923 76.884 365.303 76.884H367.787V76.74C367.787 76.068 367.583 75.552 367.175 75.192C366.779 74.832 366.185 74.652 365.393 74.652C364.853 74.652 364.319 74.736 363.791 74.904C363.275 75.072 362.837 75.306 362.477 75.606L361.595 73.968C362.099 73.584 362.705 73.29 363.413 73.086C364.121 72.882 364.871 72.78 365.663 72.78ZM365.357 80.988C365.921 80.988 366.419 80.862 366.851 80.61C367.295 80.346 367.607 79.974 367.787 79.494V78.378H365.465C364.169 78.378 363.521 78.804 363.521 79.656C363.521 80.064 363.683 80.388 364.007 80.628C364.331 80.868 364.781 80.988 365.357 80.988ZM378.847 71.88H374.671V69.9H385.363V71.88H381.187V82.5H378.847V71.88ZM391.966 74.292C392.614 73.284 393.754 72.78 395.386 72.78V74.922C395.194 74.886 395.02 74.868 394.864 74.868C393.988 74.868 393.304 75.126 392.812 75.642C392.32 76.146 392.074 76.878 392.074 77.838V82.5H389.824V72.888H391.966V74.292ZM400.445 72.888H402.695V82.5H400.445V72.888ZM401.579 71.304C401.171 71.304 400.829 71.178 400.553 70.926C400.277 70.662 400.139 70.338 400.139 69.954C400.139 69.57 400.277 69.252 400.553 69C400.829 68.736 401.171 68.604 401.579 68.604C401.987 68.604 402.329 68.73 402.605 68.982C402.881 69.222 403.019 69.528 403.019 69.9C403.019 70.296 402.881 70.632 402.605 70.908C402.341 71.172 401.999 71.304 401.579 71.304ZM414.252 72.78C415.464 72.78 416.436 73.134 417.168 73.842C417.9 74.55 418.266 75.6 418.266 76.992V82.5H416.016V77.28C416.016 76.44 415.818 75.81 415.422 75.39C415.026 74.958 414.462 74.742 413.73 74.742C412.902 74.742 412.248 74.994 411.768 75.498C411.288 75.99 411.048 76.704 411.048 77.64V82.5H408.798V72.888H410.94V74.13C411.312 73.686 411.78 73.35 412.344 73.122C412.908 72.894 413.544 72.78 414.252 72.78Z" fill="black"/>
</g>
<defs>
<filter id="filter0_d_116_382" x="0" y="0" width="473" height="153" filterUnits="userSpaceOnUse" color-interpolation-filters="sRGB">
<feFlood flood-opacity="0" result="BackgroundImageFix"/>
<feColorMatrix in="SourceAlpha" type="matrix" values="0 0 0 0 0 0 0 0 0 0 0 0 0 0 0 0 0 0 127 0" result="hardAlpha"/>
<feOffset dy="12"/>
<feGaussianBlur stdDeviation="15"/>
<feComposite in2="hardAlpha" operator="out"/>
<feColorMatrix type="matrix" values="0 0 0 0 0 0 0 0 0 0 0 0 0 0 0 0 0 0 0.15 0"/>
<feBlend mode="normal" in2="BackgroundImageFix" result="effect1_dropShadow_116_382"/>
<feBlend mode="normal" in="SourceGraphic" in2="effect1_dropShadow_116_382" result="shape"/>
</filter>
<radialGradient id="paint0_radial_116_382" cx="0" cy="0" r="1" gradientUnits="userSpaceOnUse" gradientTransform="translate(30 111) rotate(-12.6903) scale(423.341 1689.59)">
<stop offset="0.333333" stop-color="#E3E8FF"/>
<stop offset="1" stop-color="white" stop-opacity="0"/>
</radialGradient>
</defs>
</svg>
